<svg width="24" height="24" viewBox="0 0 24 24" fill="none" xmlns="http://www.w3.org/2000/svg">
<path d="M13.9353 19.6741C14.2742 19.3803 14.7911 19.4118 15.0902 19.7447C15.3894 20.0776 15.3572 20.5854 15.0183 20.8792C14.2144 21.5762 13.1566 22 12 22C10.8434 22 9.7856 21.5761 8.9817 20.8792C8.64291 20.5855 8.60997 20.0776 8.90876 19.7447C9.20788 19.4118 9.72583 19.3803 10.0647 19.6741C10.581 20.1216 11.2574 20.3925 12 20.3925C12.7426 20.3924 13.419 20.1216 13.9353 19.6741ZM16.7987 8.32121C16.7986 7.07115 16.2929 5.87231 15.393 4.98837C14.4931 4.10444 13.2726 3.60757 12 3.60754C10.7274 3.60754 9.50696 4.1045 8.60703 4.98837C7.70715 5.87231 7.20135 7.07115 7.20129 8.32121C7.20129 11.3057 6.43268 13.4004 5.53278 14.821C5.27884 15.2219 5.07835 15.5401 4.92532 15.7897C5.16091 15.7924 5.45246 15.7936 5.81053 15.7936H18.1895C18.5471 15.7936 18.8383 15.7924 19.0737 15.7897C18.9207 15.5402 18.721 15.2217 18.4672 14.821C17.5673 13.4004 16.7987 11.3057 16.7987 8.32121ZM18.4353 8.32121C18.4353 11.0202 19.1264 12.8178 19.857 13.9711C20.1971 14.5081 20.4643 14.9292 20.6433 15.2342C20.7321 15.3856 20.8112 15.5291 20.8691 15.6543C20.8979 15.7167 20.9298 15.7915 20.954 15.8711C20.9743 15.9382 21.0107 16.0756 20.997 16.2411C20.9869 16.3617 20.9624 16.557 20.8491 16.7573C20.736 16.9574 20.5803 17.0808 20.4814 17.1529C20.2697 17.3071 20.0229 17.3425 19.9369 17.355C19.8053 17.3742 19.653 17.3844 19.4963 17.3904C19.1809 17.4024 18.7414 17.4021 18.1895 17.4021H5.81053C5.25828 17.4021 4.81816 17.4024 4.50269 17.3904C4.34613 17.3844 4.19463 17.3742 4.06309 17.355C3.97735 17.3425 3.73051 17.3073 3.51857 17.1529C3.4197 17.0808 3.26412 16.9575 3.1509 16.7573C3.03758 16.557 3.01307 16.3617 3.00303 16.2411C2.98926 16.0755 3.0257 15.9381 3.046 15.8711C3.07017 15.7914 3.10204 15.7167 3.13092 15.6543C3.18878 15.5291 3.26791 15.3856 3.35672 15.2342C3.53571 14.9292 3.80293 14.508 4.14302 13.9711C4.87357 12.8178 5.56375 11.0201 5.56375 8.32121C5.56382 6.6447 6.2422 5.03641 7.44906 3.85093C8.65598 2.66551 10.2932 2 12 2C13.7068 2.00004 15.344 2.66545 16.5509 3.85093C17.7578 5.03641 18.4352 6.6447 18.4353 8.32121Z" fill="#28303A"/>
</svg>
