<svg width="24" height="24" viewBox="0 0 24 24" fill="none" xmlns="http://www.w3.org/2000/svg">
<path d="M9.36413 14.689H6.93722C6.52081 14.689 6.11635 14.6358 5.73006 14.5387L6.85577 19.0396C6.90007 19.2168 6.9115 19.2607 6.92267 19.2936C7.05663 19.6889 7.41237 19.9673 7.82828 20.0014C7.86298 20.0043 7.9084 20.0043 8.09105 20.0043C8.32011 20.0043 8.378 20.0035 8.41877 19.9995C8.91692 19.9512 9.31083 19.5571 9.35929 19.059C9.36324 19.0182 9.36413 18.9601 9.36413 18.7313V14.689ZM20.4118 9.75177C20.4118 8.68938 19.7284 7.78885 18.778 7.45962V12.0429C19.7282 11.7136 20.4118 10.814 20.4118 9.75177ZM3.58821 9.75177C3.58823 11.601 5.08798 13.0998 6.93722 13.0998H9.36413V6.40373H6.93722C5.08797 6.40373 3.58821 7.90251 3.58821 9.75177ZM17.1898 5.26541C17.1898 4.77079 17.1888 4.44764 17.1704 4.2163C17.1615 4.10445 17.1492 4.04463 17.1433 4.0185C17.1412 4.01628 17.1399 4.01406 17.1384 4.01269C17.1341 4.00864 17.1318 4.00662 17.1307 4.0059C17.1298 4.00539 17.1264 4.00316 17.12 4.00105C17.1189 4.00069 17.1175 4.00049 17.1161 4.00008C17.089 4.00796 17.0248 4.02859 16.9096 4.08056C16.6831 4.18278 16.3788 4.34803 15.9196 4.59833C14.5341 5.3536 12.6587 6.20702 10.9533 6.37173V13.1308C12.6588 13.2955 14.5341 14.1499 15.9196 14.9052C16.3788 15.1555 16.6831 15.3208 16.9096 15.423C17.0244 15.4748 17.0888 15.4946 17.1161 15.5025C17.1174 15.5021 17.1189 15.5028 17.12 15.5025C17.1264 15.5004 17.1298 15.4981 17.1307 15.4976C17.1318 15.4969 17.1341 15.4949 17.1384 15.4908C17.14 15.4894 17.141 15.4865 17.1433 15.4841C17.1492 15.4575 17.1616 15.3978 17.1704 15.2872C17.1888 15.0559 17.1898 14.7327 17.1898 14.2381V5.26541ZM18.778 5.81421C20.6158 6.18283 22 7.80547 22 9.75177C22 11.698 20.6157 13.3197 18.778 13.6884V14.2381C18.778 14.7049 18.7784 15.1039 18.7538 15.4133C18.7309 15.7011 18.6794 16.0734 18.458 16.3829C18.1694 16.7864 17.7646 17.0264 17.2722 17.0868C16.8883 17.1338 16.5241 16.9925 16.2561 16.8716C15.9617 16.7387 15.5944 16.5381 15.1585 16.3005C13.8267 15.5745 12.2643 14.8901 10.9533 14.7258V18.7313C10.9533 18.923 10.9539 19.0757 10.9407 19.2122C10.819 20.4665 9.82631 21.4593 8.57197 21.5809C8.43546 21.5942 8.28285 21.5935 8.09105 21.5935C7.93758 21.5935 7.81442 21.5942 7.69933 21.5848C6.65172 21.4991 5.75506 20.7982 5.41785 19.8027C5.38088 19.6934 5.35126 19.5741 5.3141 19.4255L3.86455 13.6263C3.86335 13.6215 3.86274 13.6166 3.86164 13.6118C2.72768 12.7072 2.00001 11.3151 2 9.75177C2 7.02515 4.21061 4.81455 6.93722 4.81455H10.389C11.7964 4.81454 13.6295 4.03652 15.1585 3.20307C15.5944 2.96545 15.9617 2.76479 16.2561 2.63197C16.4905 2.52619 16.7983 2.40442 17.1287 2.40702L17.2722 2.41575L17.4526 2.44678C17.864 2.53875 18.2054 2.76749 18.458 3.12065C18.6794 3.43011 18.7309 3.80243 18.7538 4.09025C18.7784 4.39966 18.778 4.79867 18.778 5.26541V5.81421Z" fill="#28303A"/>
</svg>
