<svg width="24" height="24" viewBox="0 0 24 24" fill="none" xmlns="http://www.w3.org/2000/svg">
<path d="M11.465 15.8004C9.65332 15.8004 8.30164 14.3901 8.29225 11.9908C8.30164 9.58242 9.70026 8.19963 11.465 8.19963C12.7603 8.19963 13.3329 8.98718 13.5676 9.44506H13.6614V8.34615H15.2947V13.4744C15.3229 14.1429 15.5951 14.4725 16.1583 14.4634C17.219 14.4725 17.9136 13.2729 17.923 11.4963C17.9418 8.18132 15.5106 6.00183 12.0094 6.00183C8.3955 6.01099 6.08637 8.64835 6.07699 11.9908C6.07699 15.6264 8.09513 18.0256 11.9343 17.9982C13.2578 17.989 14.1965 17.8883 15.2947 17.5952V19.0604C14.3091 19.3352 13.1733 19.5 11.9343 19.5C7.28787 19.5 4.50002 16.6062 4.50002 11.9908C4.49063 7.65934 7.60702 4.5 12.0094 4.5C16.4587 4.5 19.5094 7.46703 19.5 11.4414C19.5 14.2527 18.0263 15.8828 16.0269 15.8736C14.8066 15.8736 13.8961 15.2692 13.7553 14.4267H13.6614C13.4268 14.8938 12.826 15.8004 11.465 15.8004ZM10.057 11.9725C10.0476 13.3004 10.7046 14.2894 11.878 14.2985C13.0701 14.2894 13.6896 13.3736 13.699 11.9725C13.6896 10.6081 13.0795 9.71062 11.878 9.70147C10.6952 9.71062 10.0476 10.6813 10.057 11.9725Z" fill="#28303A"/>
</svg>
