<svg width="24" height="24" viewBox="0 0 24 24" fill="none" xmlns="http://www.w3.org/2000/svg">
<path d="M13.0388 4.08964C14.4916 2.63679 16.8477 2.63679 18.3005 4.08964C19.753 5.54246 19.7531 7.89762 18.3005 9.35038L11.073 16.5779C10.1903 17.4604 8.75926 17.4604 7.87667 16.5779C6.99409 15.6953 6.99418 14.2643 7.87667 13.3816L14.2194 7.03885C14.5318 6.72685 15.038 6.72673 15.3503 7.03885C15.6627 7.35127 15.6627 7.85827 15.3503 8.17069L9.00851 14.5125C8.75071 14.7703 8.75071 15.1883 9.00851 15.4461C9.26631 15.7038 9.68433 15.7039 9.9421 15.4461L17.1687 8.21952C17.9967 7.39151 17.9967 6.0485 17.1687 5.22049C16.3407 4.39271 14.9986 4.39269 14.1706 5.22049L6.64816 12.743C5.25001 14.1412 5.24996 16.4082 6.64816 17.8064C8.04636 19.2046 10.3134 19.2046 11.7116 17.8064L19.2341 10.284C19.5465 9.97175 20.0526 9.97175 20.365 10.284C20.6774 10.5964 20.6774 11.1034 20.365 11.4158L12.8425 18.9373C10.8194 20.9603 7.54034 20.9603 5.5173 18.9373C3.49423 16.9142 3.49423 13.6342 5.5173 11.6111L13.0388 4.08964Z" fill="#28303A"/>
</svg>
