<svg width="24" height="24" viewBox="0 0 24 24" fill="none" xmlns="http://www.w3.org/2000/svg">
<path d="M2 19.143V17.2197C2.00008 16.7689 2.36534 16.4036 2.81614 16.4036C3.26695 16.4036 3.6322 16.7689 3.63229 17.2197V19.143C3.63229 19.8193 4.18072 20.3677 4.857 20.3677H6.78027C7.23105 20.3678 7.59641 20.7331 7.59641 21.1839C7.59641 21.6347 7.23105 21.9999 6.78027 22H4.857C3.27901 22 2 20.721 2 19.143ZM13.9233 20.3677C14.3741 20.3678 14.7394 20.7331 14.7394 21.1839C14.7394 21.6347 14.3741 21.9999 13.9233 22H10.0767C9.62595 21.9999 9.26059 21.6347 9.26059 21.1839C9.26059 20.7331 9.62595 20.3678 10.0767 20.3677H13.9233ZM20.3677 19.143V17.2197C20.3678 16.7689 20.7331 16.4036 21.1839 16.4036C21.6347 16.4036 21.9999 16.7689 22 17.2197V19.143C22 20.721 20.721 22 19.143 22H17.2197C16.7689 21.9999 16.4036 21.6347 16.4036 21.1839C16.4036 20.7331 16.7689 20.3678 17.2197 20.3677H19.143C19.8193 20.3677 20.3677 19.8193 20.3677 19.143ZM2 13.9233V10.0767C2.00008 9.62595 2.36534 9.26059 2.81614 9.26059C3.26695 9.26059 3.6322 9.62595 3.63229 10.0767V13.9233C3.6322 14.3741 3.26695 14.7394 2.81614 14.7394C2.36534 14.7394 2.00008 14.3741 2 13.9233ZM20.3677 13.9233V10.0767C20.3678 9.62595 20.7331 9.26059 21.1839 9.26059C21.6347 9.26059 21.9999 9.62595 22 10.0767V13.9233C21.9999 14.3741 21.6347 14.7394 21.1839 14.7394C20.7331 14.7394 20.3678 14.3741 20.3677 13.9233ZM2 6.78027V4.857C2 3.27901 3.27901 2 4.857 2H6.78027C7.23105 2.00008 7.59641 2.36534 7.59641 2.81614C7.59641 3.26695 7.23105 3.6322 6.78027 3.63229H4.857C4.18072 3.63229 3.63229 4.18072 3.63229 4.857V6.78027C3.6322 7.23105 3.26695 7.59641 2.81614 7.59641C2.36534 7.59641 2.00008 7.23105 2 6.78027ZM20.3677 6.78027V4.857C20.3677 4.18072 19.8193 3.63229 19.143 3.63229H17.2197C16.7689 3.6322 16.4036 3.26695 16.4036 2.81614C16.4036 2.36534 16.7689 2.00008 17.2197 2H19.143C20.721 2 22 3.27901 22 4.857V6.78027C21.9999 7.23105 21.6347 7.59641 21.1839 7.59641C20.7331 7.59641 20.3678 7.23105 20.3677 6.78027ZM13.9233 2C14.3741 2.00008 14.7394 2.36534 14.7394 2.81614C14.7394 3.26695 14.3741 3.6322 13.9233 3.63229H10.0767C9.62595 3.6322 9.26059 3.26695 9.26059 2.81614C9.26059 2.36534 9.62595 2.00008 10.0767 2H13.9233Z" fill="#28303A"/>
</svg>
