<svg width="24" height="24" viewBox="0 0 24 24" fill="none" xmlns="http://www.w3.org/2000/svg">
<path d="M19.413 10.9601H4.58602V16.7843C4.58602 17.5699 4.58689 18.1111 4.62087 18.531C4.65412 18.9416 4.71552 19.1656 4.79806 19.3292C4.98429 19.6979 5.28175 19.998 5.64723 20.1859C5.80927 20.2691 6.03081 20.3311 6.43733 20.3647C6.85364 20.399 7.39063 20.3998 8.16955 20.3998H15.8295C16.6086 20.3998 17.1453 20.399 17.5617 20.3647C17.9688 20.3311 18.1906 20.2692 18.3528 20.1859C18.7182 19.998 19.0157 19.6979 19.2019 19.3292C19.2844 19.1656 19.3449 18.9414 19.3782 18.531C19.4121 18.1111 19.413 17.5699 19.413 16.7843V10.9601ZM14.8535 6.48005V5.44063H9.14556V6.48005C9.14555 6.92193 8.7905 7.27998 8.35256 7.28012C7.91449 7.28012 7.55956 6.92202 7.55955 6.48005V5.44258C7.09444 5.44476 6.73493 5.45029 6.43733 5.47482C6.03091 5.50835 5.80926 5.57041 5.64723 5.65359C5.28177 5.84146 4.98429 6.14162 4.79806 6.51033C4.71546 6.6739 4.65413 6.89771 4.62087 7.30845C4.58686 7.72853 4.58602 8.27008 4.58602 9.05612V9.35994H19.413V9.05612C19.413 8.27006 19.4122 7.72854 19.3782 7.30845C19.3449 6.89786 19.2845 6.67389 19.2019 6.51033C19.0157 6.14159 18.7182 5.84147 18.3528 5.65359C18.1906 5.57026 17.9687 5.50838 17.5617 5.47482C17.2642 5.4503 16.9053 5.44476 16.4405 5.44258V6.48005C16.4404 6.92191 16.0854 7.27995 15.6474 7.28012C15.2094 7.28012 14.8535 6.92202 14.8535 6.48005ZM21 16.7843C21 17.5438 20.9998 18.1617 20.9593 18.6619C20.918 19.1716 20.8302 19.6292 20.6146 20.056C20.2763 20.7258 19.7371 21.2708 19.0732 21.6122C18.6501 21.8296 18.1957 21.9183 17.6905 21.9599C17.1946 22.0008 16.5822 22 15.8295 22H8.16955C7.41678 22 6.80443 22.0008 6.30855 21.9599C5.80347 21.9183 5.34979 21.8295 4.92684 21.6122C4.26286 21.2708 3.72272 20.7259 3.3844 20.056C3.16893 19.6292 3.08098 19.1715 3.0397 18.6619C2.99919 18.1617 3 17.5438 3 16.7843V9.05612C3 8.29669 2.99922 7.67883 3.0397 7.17853C3.08098 6.66881 3.16885 6.21033 3.3844 5.78352C3.72272 5.11368 4.26291 4.56961 4.92684 4.2283C5.34985 4.01086 5.80339 3.92217 6.30855 3.88053C6.66309 3.8513 7.0772 3.84364 7.55955 3.84145V2.80008C7.55955 2.3581 7.91448 2 8.35256 2C8.7905 2.00015 9.14556 2.35819 9.14556 2.80008V3.8395H14.8535V2.80008C14.8535 2.3581 15.2094 2 15.6474 2C16.0854 2.00017 16.4405 2.3582 16.4405 2.80008V3.84145C16.9224 3.84365 17.3361 3.85133 17.6905 3.88053C18.1957 3.92217 18.6501 4.01083 19.0732 4.2283C19.7368 4.5696 20.2764 5.11389 20.6146 5.78352C20.8302 6.21033 20.9181 6.66881 20.9593 7.17853C20.9998 7.67883 21 8.29667 21 9.05612V16.7843Z" fill="#28303A"/>
</svg>
