<svg width="24" height="24" viewBox="0 0 24 24" fill="none" xmlns="http://www.w3.org/2000/svg">
<path d="M5.17482 2.49418C5.95085 2.10168 6.86751 2.10175 7.64357 2.49418C8.06259 2.70612 8.42584 3.08407 8.89552 3.55375L9.084 3.74223C9.39321 4.05144 9.63885 4.29091 9.80665 4.54887C10.396 5.45534 10.396 6.62384 9.80665 7.53031C9.63885 7.78841 9.39334 8.02859 9.084 8.33793C9.0254 8.39653 8.99495 8.4274 8.97267 8.45121C8.96449 8.45995 8.95942 8.46503 8.95704 8.46781C8.93559 8.49778 8.92149 8.5767 8.93165 8.61235L8.93263 8.6143C8.93312 8.61562 8.9345 8.62075 8.93849 8.62992C8.94843 8.65277 8.96314 8.68253 8.99415 8.74711C9.62896 10.0693 10.495 11.3095 11.5928 12.4073C12.6905 13.505 13.9308 14.3711 15.2529 15.0059C15.3175 15.0369 15.3473 15.0516 15.3701 15.0616C15.3793 15.0656 15.3844 15.0669 15.3858 15.0674L15.3877 15.0684C15.4234 15.0786 15.5023 15.0645 15.5322 15.043C15.535 15.0406 15.5401 15.0356 15.5488 15.0274C15.5726 15.0051 15.6035 14.9747 15.6621 14.9161C15.9715 14.6067 16.2116 14.3612 16.4697 14.1934C17.3762 13.604 18.5447 13.604 19.4512 14.1934C19.7091 14.3612 19.9486 14.6068 20.2578 14.9161L20.4463 15.1045C20.916 15.5742 21.2939 15.9375 21.5059 16.3565C21.8983 17.1325 21.8984 18.0492 21.5059 18.8252C21.2939 19.2443 20.916 19.6075 20.4463 20.0772L20.294 20.2295C19.8061 20.7174 19.4674 21.0643 19.0029 21.3252C18.4961 21.6099 17.76 21.8016 17.1787 21.7998C16.6523 21.7982 16.2759 21.6871 15.7442 21.5362C12.6816 20.6669 9.79201 19.0264 7.38282 16.6172C4.97364 14.208 3.33313 11.3184 2.46388 8.2559C2.31295 7.72414 2.2018 7.34771 2.20021 6.82133C2.19848 6.24001 2.39012 5.50397 2.67482 4.99711C2.93571 4.53268 3.28262 4.194 3.77052 3.7061L3.92286 3.55375C4.39255 3.08407 4.7558 2.70612 5.17482 2.49418ZM6.92189 3.92192C6.59997 3.75909 6.21945 3.75924 5.89747 3.92192C5.76433 3.98926 5.61306 4.12625 5.0547 4.68461L4.90138 4.83696C4.36457 5.37376 4.19978 5.54815 4.06935 5.78031C3.91984 6.04647 3.79891 6.51118 3.79982 6.81645C3.80064 7.0889 3.84392 7.25912 4.00294 7.81938C4.79963 10.6261 6.3034 13.2741 8.51466 15.4854C10.7259 17.6967 13.374 19.2004 16.1807 19.9971C16.7409 20.1561 16.9111 20.1994 17.1836 20.2002C17.4889 20.2011 17.9536 20.0802 18.2197 19.9307C18.4519 19.8003 18.6263 19.6355 19.1631 19.0987L19.3154 18.9454C19.8738 18.387 20.0108 18.2357 20.0781 18.1026C20.2408 17.7806 20.241 17.4001 20.0781 17.0782C20.0108 16.945 19.8739 16.7938 19.3154 16.2354L19.127 16.0469C18.76 15.68 18.6611 15.5876 18.5791 15.5342C18.203 15.2897 17.7179 15.2898 17.3418 15.5342C17.2598 15.5875 17.1609 15.68 16.794 16.0469C16.7003 16.1405 16.593 16.2507 16.4629 16.3438C16.0336 16.6512 15.4464 16.7513 14.9395 16.6036C14.788 16.5594 14.665 16.4989 14.5596 16.4483C13.077 15.7364 11.6881 14.7662 10.4609 13.5391C9.23383 12.312 8.26365 10.9231 7.55177 9.44047C7.50114 9.33502 7.4407 9.21209 7.3965 9.06059C7.24872 8.55365 7.34888 7.96649 7.65626 7.53715C7.74939 7.40709 7.85952 7.29971 7.95314 7.2061C8.32004 6.83919 8.41252 6.74025 8.46583 6.65824C8.71026 6.28211 8.71035 5.79703 8.46583 5.42094C8.41249 5.33894 8.32006 5.24001 7.95314 4.87309L7.76466 4.68461C7.20624 4.12619 7.05502 3.9893 6.92189 3.92192Z" fill="#28303A"/>
</svg>
