<svg width="24" height="24" viewBox="0 0 24 24" fill="none" xmlns="http://www.w3.org/2000/svg">
<path d="M11.9297 3C16.9002 3 20.9297 7.02944 20.9297 12C20.9297 16.9706 16.9002 21 11.9297 21C6.95913 21 2.92969 16.9706 2.92969 12C2.92969 7.02944 6.95913 3 11.9297 3ZM11.9297 4.59961C7.84278 4.59961 4.5293 7.91309 4.5293 12C4.5293 16.0869 7.84278 19.4004 11.9297 19.4004C16.0166 19.4004 19.3301 16.0869 19.3301 12C19.3301 7.91309 16.0166 4.59961 11.9297 4.59961ZM11.9297 14.6504C12.3715 14.6504 12.7295 15.0084 12.7295 15.4502V15.5498C12.7294 15.9915 12.3714 16.3506 11.9297 16.3506C11.4879 16.3506 11.13 15.9915 11.1299 15.5498V15.4502C11.1299 15.0084 11.4879 14.6504 11.9297 14.6504ZM11.9297 7.65039C12.3715 7.65039 12.7295 8.00837 12.7295 8.4502V12.4502C12.7294 12.8919 12.3714 13.25 11.9297 13.25C11.4879 13.25 11.13 12.8919 11.1299 12.4502V8.4502C11.1299 8.00837 11.4879 7.65039 11.9297 7.65039Z" fill="#1C1E22"/>
</svg>
