<svg width="24" height="24" viewBox="0 0 24 24" fill="none" xmlns="http://www.w3.org/2000/svg">
<path d="M11.2002 17V16.9883C11.2002 16.5465 11.5582 16.1885 12 16.1885C12.4418 16.1885 12.7998 16.5465 12.7998 16.9883V17C12.7998 17.4418 12.4418 17.7998 12 17.7998C11.5582 17.7998 11.2002 17.4418 11.2002 17ZM11.2002 14.375V10C11.2002 9.55817 11.5582 9.2002 12 9.2002C12.4418 9.2002 12.7998 9.55817 12.7998 10V14.375C12.7998 14.8168 12.4418 15.1748 12 15.1748C11.5582 15.1748 11.2002 14.8168 11.2002 14.375Z" fill="#28303A"/>
<path d="M12.0007 3.2002C12.5004 3.20028 12.991 3.33368 13.4216 3.58691C13.848 3.83771 14.2009 4.19689 14.4431 4.62793L21.5457 16.8535L21.5955 16.9551C21.7669 17.3781 21.8318 17.837 21.7849 18.291C21.738 18.745 21.5802 19.1805 21.3259 19.5596C21.0717 19.9385 20.7289 20.2497 20.3269 20.4658C19.9247 20.6819 19.4749 20.7966 19.0183 20.7998H5.00758C4.9895 20.7998 4.97165 20.7981 4.95387 20.7969C4.92181 20.7991 4.88912 20.8005 4.85621 20.7988C4.41046 20.7759 3.97641 20.6472 3.59059 20.4229C3.20482 20.1985 2.87846 19.8849 2.63844 19.5088C2.39847 19.1326 2.25215 18.7041 2.21168 18.2598C2.17128 17.8153 2.23778 17.3674 2.40602 16.9541L2.45485 16.8535L9.54957 4.6416C9.792 4.20448 10.148 3.84036 10.5789 3.58691C11.0097 3.33358 11.5009 3.2002 12.0007 3.2002ZM12.0007 4.7998C11.7859 4.7998 11.5743 4.85709 11.3894 4.96582C11.2046 5.07454 11.0526 5.23115 10.949 5.41797C10.9465 5.42252 10.9438 5.42714 10.9412 5.43164L3.87477 17.5947C3.81355 17.7607 3.78846 17.9379 3.80446 18.1143C3.8217 18.3039 3.88443 18.4875 3.98707 18.6484C4.08969 18.8092 4.22986 18.9429 4.39528 19.0391C4.56072 19.1353 4.74676 19.1913 4.93825 19.2012C4.94335 19.2014 4.9488 19.2018 4.95387 19.2021C4.97163 19.201 4.98953 19.2002 5.00758 19.2002H19.0076C19.2038 19.1988 19.3966 19.1494 19.5691 19.0566C19.7417 18.9639 19.8891 18.8301 19.9978 18.668C20.1064 18.5059 20.1731 18.3196 20.1931 18.126C20.2117 17.9451 20.1875 17.7632 20.1248 17.5928L13.0593 5.43164C13.0567 5.42713 13.0541 5.42253 13.0515 5.41797C12.9479 5.23113 12.7959 5.07454 12.6111 4.96582C12.4264 4.85717 12.2155 4.79988 12.0007 4.7998Z" fill="#28303A"/>
</svg>
