<svg width="24" height="24" viewBox="0 0 24 24" fill="none" xmlns="http://www.w3.org/2000/svg">
<path d="M5.29289 6.29295C5.68342 5.90243 6.31643 5.90243 6.70696 6.29295L11.707 11.293C12.0975 11.6835 12.0975 12.3165 11.707 12.707L6.70696 17.707C6.31643 18.0975 5.68342 18.0975 5.29289 17.707C4.90237 17.3165 4.90237 16.6835 5.29289 16.293L9.58586 12L5.29289 7.70702C4.90237 7.31649 4.90237 6.68348 5.29289 6.29295ZM12.2929 6.29295C12.6834 5.90243 13.3164 5.90243 13.707 6.29295L18.707 11.293C19.0975 11.6835 19.0975 12.3165 18.707 12.707L13.707 17.707C13.3164 18.0975 12.6834 18.0975 12.2929 17.707C11.9024 17.3165 11.9024 16.6835 12.2929 16.293L16.5859 12L12.2929 7.70702C11.9024 7.31649 11.9024 6.68348 12.2929 6.29295Z" fill="#28303A"/>
</svg>
