<svg width="24" height="24" viewBox="0 0 24 24" fill="none" xmlns="http://www.w3.org/2000/svg">
<path d="M10.2929 6.29295C10.6834 5.90243 11.3164 5.90243 11.707 6.29295C12.0975 6.68348 12.0975 7.31649 11.707 7.70702L7.41399 12L11.707 16.293C12.0975 16.6835 12.0975 17.3165 11.707 17.707C11.3164 18.0975 10.6834 18.0975 10.2929 17.707L5.29289 12.707C4.90237 12.3165 4.90237 11.6835 5.29289 11.293L10.2929 6.29295ZM17.2929 6.29295C17.6834 5.90243 18.3164 5.90243 18.707 6.29295C19.0975 6.68348 19.0975 7.31649 18.707 7.70702L14.414 12L18.707 16.293C19.0975 16.6835 19.0975 17.3165 18.707 17.707C18.3164 18.0975 17.6834 18.0975 17.2929 17.707L12.2929 12.707C11.9024 12.3165 11.9024 11.6835 12.2929 11.293L17.2929 6.29295Z" fill="#28303A"/>
</svg>
