<svg width="24" height="24" viewBox="0 0 24 24" fill="none" xmlns="http://www.w3.org/2000/svg">
<path d="M5.43451 6.43457C5.74693 6.12215 6.25295 6.12215 6.56537 6.43457L11.5654 11.4346C11.8778 11.747 11.8778 12.253 11.5654 12.5654L6.56537 17.5654C6.25295 17.8779 5.74693 17.8779 5.43451 17.5654C5.12209 17.253 5.12209 16.747 5.43451 16.4346L9.86908 12L5.43451 7.56543C5.12209 7.25301 5.12209 6.74699 5.43451 6.43457ZM12.4345 6.43457C12.7469 6.12215 13.2529 6.12215 13.5654 6.43457L18.5654 11.4346C18.8778 11.747 18.8778 12.253 18.5654 12.5654L13.5654 17.5654C13.2529 17.8779 12.7469 17.8779 12.4345 17.5654C12.1221 17.253 12.1221 16.747 12.4345 16.4346L16.8691 12L12.4345 7.56543C12.1221 7.25301 12.1221 6.74699 12.4345 6.43457Z" fill="#28303A"/>
</svg>
