<svg width="24" height="24" viewBox="0 0 24 24" fill="none" xmlns="http://www.w3.org/2000/svg">
<path d="M10.4345 6.43457C10.7469 6.12215 11.2529 6.12215 11.5654 6.43457C11.8778 6.74699 11.8778 7.25301 11.5654 7.56543L7.1308 12L11.5654 16.4346C11.8778 16.747 11.8778 17.253 11.5654 17.5654C11.2529 17.8779 10.7469 17.8779 10.4345 17.5654L5.43451 12.5654C5.12209 12.253 5.12209 11.747 5.43451 11.4346L10.4345 6.43457ZM17.4345 6.43457C17.7469 6.12215 18.2529 6.12215 18.5654 6.43457C18.8778 6.74699 18.8778 7.25301 18.5654 7.56543L14.1308 12L18.5654 16.4346C18.8778 16.747 18.8778 17.253 18.5654 17.5654C18.2529 17.8779 17.7469 17.8779 17.4345 17.5654L12.4345 12.5654C12.1221 12.253 12.1221 11.747 12.4345 11.4346L17.4345 6.43457Z" fill="#28303A"/>
</svg>
