<svg width="24" height="24" viewBox="0 0 24 24" fill="none" xmlns="http://www.w3.org/2000/svg">
<path d="M19.4004 12C19.4004 7.91309 16.0869 4.59961 12 4.59961C7.91309 4.59961 4.59961 7.91309 4.59961 12C4.59961 16.0869 7.91309 19.4004 12 19.4004V21C7.02944 21 3 16.9706 3 12C3 7.02944 7.02944 3 12 3C16.9706 3 21 7.02944 21 12C21 16.9706 16.9706 21 12 21V20.2002V19.4004C16.0869 19.4004 19.4004 16.0869 19.4004 12Z" fill="#28303A"/>
<path d="M14.2632 15.3974L11.9969 13.1311L9.73744 15.3905C9.42504 15.7029 8.91877 15.7029 8.60634 15.3905C8.29392 15.0781 8.29392 14.5718 8.60634 14.2594L10.8658 12L8.60634 9.74057C8.29392 9.42815 8.29392 8.9219 8.60634 8.60948C8.91877 8.29714 9.42504 8.29709 9.73744 8.60948L11.9969 10.8689L14.2632 8.60257C14.5756 8.29015 15.0819 8.29015 15.3943 8.60257C15.7066 8.915 15.7067 9.42128 15.3943 9.73367L13.128 12L15.3943 14.2663C15.7067 14.5787 15.7066 15.085 15.3943 15.3974C15.0819 15.7098 14.5756 15.7098 14.2632 15.3974Z" fill="#28303A"/>
</svg>
