<svg width="24" height="24" viewBox="0 0 24 24" fill="none" xmlns="http://www.w3.org/2000/svg">
<path d="M17.4345 5.43451C17.7469 5.12209 18.2529 5.12209 18.5654 5.43451C18.8778 5.74693 18.8778 6.25295 18.5654 6.56537L13.1308 11.9999L18.5654 17.4345C18.8778 17.7469 18.8778 18.2529 18.5654 18.5654C18.2529 18.8778 17.7469 18.8778 17.4345 18.5654L11.9999 13.1308L6.56537 18.5654C6.25295 18.8778 5.74693 18.8778 5.43451 18.5654C5.12209 18.2529 5.12209 17.7469 5.43451 17.4345L10.8691 11.9999L5.43451 6.56537C5.12209 6.25295 5.12209 5.74693 5.43451 5.43451C5.74693 5.12209 6.25295 5.12209 6.56537 5.43451L11.9999 10.8691L17.4345 5.43451Z" fill="#28303A"/>
</svg>
