<svg width="24" height="24" viewBox="0 0 24 24" fill="none" xmlns="http://www.w3.org/2000/svg">
<path d="M19.7998 12C19.7998 7.69218 16.3078 4.2002 12 4.2002C7.69218 4.2002 4.2002 7.69218 4.2002 12C4.2002 16.3078 7.69218 19.7998 12 19.7998V21C7.02944 21 3 16.9706 3 12C3 7.02944 7.02944 3 12 3C16.9706 3 21 7.02944 21 12C21 16.9706 16.9706 21 12 21V19.7998C16.3078 19.7998 19.7998 16.3078 19.7998 12Z" fill="#28303A"/>
<path d="M12 3C16.9706 3 21 7.02944 21 12C21 16.9706 16.9706 21 12 21C7.02944 21 3 16.9706 3 12C3 7.02944 7.02944 3 12 3ZM15.3945 8.60254C15.0822 8.29018 14.5761 8.29026 14.2637 8.60254L11.9971 10.8691L9.7373 8.60938C9.42489 8.29722 8.91879 8.29712 8.60645 8.60938C8.29412 8.92172 8.29427 9.4278 8.60645 9.74023L10.8662 12L8.60645 14.2598C8.29427 14.5722 8.29412 15.0783 8.60645 15.3906C8.91879 15.7029 9.42489 15.7028 9.7373 15.3906L11.9971 13.1309L14.2637 15.3975C14.5761 15.7097 15.0822 15.7098 15.3945 15.3975C15.7068 15.0851 15.7068 14.579 15.3945 14.2666L13.1279 12L15.3945 9.7334C15.7068 9.421 15.7068 8.91492 15.3945 8.60254Z" fill="#28303A"/>
</svg>
