<svg width="24" height="24" viewBox="0 0 24 24" fill="none" xmlns="http://www.w3.org/2000/svg">
<path d="M21 20.2002C21.4418 20.2002 21.7998 20.5582 21.7998 21C21.7998 21.4418 21.4418 21.7998 21 21.7998H3C2.55817 21.7998 2.2002 21.4418 2.2002 21C2.2002 20.5582 2.55817 20.2002 3 20.2002H21ZM11.2002 3C11.2002 2.55817 11.5582 2.2002 12 2.2002C12.4418 2.2002 12.7998 2.55817 12.7998 3V15.0693L17.4346 10.4346C17.747 10.1222 18.253 10.1222 18.5654 10.4346C18.8778 10.747 18.8778 11.253 18.5654 11.5654L12.5654 17.5654C12.253 17.8778 11.747 17.8778 11.4346 17.5654L5.43457 11.5654C5.12215 11.253 5.12215 10.747 5.43457 10.4346C5.74699 10.1222 6.25301 10.1222 6.56543 10.4346L11.2002 15.0693V3Z" fill="#28303A"/>
</svg>
