<svg width="24" height="24" viewBox="0 0 24 24" fill="none" xmlns="http://www.w3.org/2000/svg">
<path d="M2.26074 16.6452V9.13058C2.26074 8.39259 2.26 7.79096 2.29981 7.30344C2.34041 6.80645 2.42733 6.35779 2.64063 5.93918C2.97462 5.28368 3.50759 4.75071 4.16309 4.41672C4.58154 4.20356 5.0296 4.11651 5.52637 4.0759C6.01402 4.03605 6.61619 4.03683 7.35449 4.03683H11.1113C11.5531 4.03683 11.912 4.39491 11.9121 4.83664C11.9121 5.27847 11.5532 5.63644 11.1113 5.63644H7.35449C6.58994 5.63644 6.06457 5.63736 5.65723 5.67062C5.25918 5.70315 5.04414 5.76328 4.88867 5.8425C4.53444 6.02311 4.24595 6.31145 4.06543 6.66574C3.98633 6.82117 3.92702 7.03566 3.89453 7.43332C3.86125 7.84066 3.86035 8.36601 3.86035 9.13058V16.6452C3.86035 17.4098 3.86127 17.9352 3.89453 18.3425C3.92705 18.7405 3.98622 18.9556 4.06543 19.1111C4.24601 19.4654 4.53434 19.7537 4.88867 19.9343C5.04414 20.0135 5.25918 20.0727 5.65723 20.1052C6.06458 20.1385 6.58993 20.1394 7.35449 20.1394H14.8691C15.6337 20.1394 16.1591 20.1385 16.5664 20.1052C16.9641 20.0727 17.1786 20.0134 17.334 19.9343C17.6883 19.7538 17.9766 19.4653 18.1572 19.1111C18.2364 18.9556 18.2966 18.7405 18.3291 18.3425C18.3624 17.9352 18.3633 17.4098 18.3633 16.6452V12.8884C18.3633 12.4466 18.7213 12.0876 19.1631 12.0876C19.6048 12.0877 19.9629 12.4466 19.9629 12.8884V16.6452C19.9629 17.3835 19.9637 17.9857 19.9238 18.4734C19.8832 18.9701 19.7962 19.4182 19.583 19.8366C19.249 20.4921 18.716 21.0251 18.0605 21.3591C17.6419 21.5724 17.1933 21.6593 16.6963 21.6999C16.2088 21.7397 15.6071 21.739 14.8691 21.739H7.35449C6.61619 21.739 6.01402 21.7398 5.52637 21.6999C5.02957 21.6593 4.58156 21.5723 4.16309 21.3591C3.50758 21.0251 2.97462 20.4921 2.64063 19.8366C2.42744 19.4182 2.34042 18.9702 2.29981 18.4734C2.25996 17.9857 2.26074 17.3835 2.26074 16.6452ZM17.2549 2.92941C18.3084 1.87591 20.0168 1.87591 21.0703 2.92941C22.1238 3.98292 22.1238 5.69133 21.0703 6.74484L12.5156 15.2986C12.2332 15.581 12.0036 15.8183 11.7236 15.99C11.492 16.1319 11.2388 16.2371 10.9746 16.3005C10.6554 16.3771 10.3251 16.3718 9.92578 16.3718H8.42774C7.9861 16.3717 7.62807 16.0136 7.62793 15.572V14.0739C7.62793 13.6746 7.62266 13.3444 7.69922 13.0251C7.76265 12.7609 7.86781 12.5077 8.00977 12.2761C8.18138 11.9961 8.41875 11.7665 8.70117 11.4841L17.2549 2.92941ZM9.22754 14.7722H9.92578C10.4013 14.7722 10.5092 14.767 10.6016 14.7448C10.7025 14.7206 10.7992 14.6799 10.8877 14.6257C10.9686 14.576 11.0488 14.5036 11.3848 14.1677L19.9395 5.61301C20.3679 5.18432 20.3681 4.48887 19.9395 4.06027C19.5109 3.63167 18.8154 3.63182 18.3867 4.06027L9.83203 12.615C9.4961 12.9509 9.42368 13.0311 9.37402 13.112C9.31979 13.2005 9.27911 13.2972 9.25488 13.3982C9.23271 13.4906 9.22754 13.5984 9.22754 14.0739V14.7722Z" fill="#28303A"/>
</svg>
