<svg width="24" height="24" viewBox="0 0 24 24" fill="none" xmlns="http://www.w3.org/2000/svg">
<path d="M3.19814 3.44237C3.50613 3.12559 4.01222 3.11876 4.329 3.42675L7.66103 6.666C7.71128 6.70429 7.7577 6.74884 7.79873 6.79979L17.3114 16.0488C17.3678 16.0907 17.4198 16.1397 17.4647 16.1973L20.786 19.4267C21.1025 19.7348 21.1096 20.2409 20.8017 20.5576C20.4937 20.8744 19.9876 20.8812 19.6708 20.5732L16.7177 17.7021C15.3935 18.4715 13.8126 19.0224 11.9999 19.0224C9.42604 19.0224 7.32076 17.9166 5.75185 16.6435C4.18533 15.3724 3.10972 13.8999 2.57021 13.0693C2.4596 12.8991 2.31324 12.6878 2.24111 12.3818C2.18655 12.1502 2.18656 11.8498 2.24111 11.6182L2.27138 11.5068C2.34946 11.2589 2.47415 11.0781 2.57119 10.9287C3.12796 10.0718 4.26445 8.51908 5.93056 7.21483L3.21377 4.57323C2.89727 4.26521 2.89025 3.75906 3.19814 3.44237ZM7.09072 8.34276C5.52997 9.51559 4.44404 10.9834 3.91299 11.8008C3.88074 11.8504 3.85725 11.8858 3.83779 11.917C3.81874 11.9475 3.80872 11.9662 3.80263 11.9775C3.80177 11.9792 3.80033 11.9802 3.7997 11.9814V12.0176C3.80041 12.019 3.80157 12.0205 3.80263 12.0224C3.80862 12.0337 3.81887 12.0517 3.83779 12.082C3.85714 12.113 3.87986 12.1487 3.91201 12.1982C4.40141 12.9517 5.37186 14.2734 6.76064 15.4004C8.14707 16.5254 9.90653 17.4219 11.9999 17.4219C13.3068 17.4219 14.4817 17.072 15.5185 16.5361L13.8759 14.9394C13.3305 15.2732 12.6873 15.4668 11.9999 15.4668C10.0647 15.4668 8.45693 13.9356 8.45693 12C8.45693 11.3319 8.64999 10.7088 8.98232 10.1816L7.09072 8.34276ZM11.9999 4.97753C14.5738 4.97753 16.679 6.08333 18.2479 7.35643C19.8145 8.62761 20.8901 10.1001 21.4296 10.9307C21.5264 11.0797 21.6506 11.26 21.7284 11.5078L21.7587 11.6182L21.7899 11.8027C21.8104 11.996 21.7997 12.209 21.7587 12.3828C21.6864 12.689 21.5387 12.9013 21.4276 13.0723C21.1383 13.5175 20.6995 14.1402 20.1181 14.8154C19.8298 15.1502 19.3239 15.1886 18.9892 14.9004C18.6544 14.6121 18.6169 14.1063 18.9052 13.7715C19.4308 13.1611 19.828 12.5985 20.0868 12.2002C20.1192 12.1504 20.1425 12.1143 20.162 12.083C20.1808 12.0529 20.191 12.0349 20.1972 12.0234C20.1982 12.0215 20.1984 12.019 20.1991 12.0176C20.1994 12.0125 20.2001 12.0066 20.2001 12C20.2001 11.9929 20.1994 11.9867 20.1991 11.9814C20.1985 11.9803 20.1979 11.979 20.1972 11.9775C20.1912 11.9663 20.1809 11.9482 20.162 11.918C20.1427 11.887 20.1199 11.8512 20.0878 11.8017C19.5984 11.0483 18.6279 9.72655 17.2392 8.5996C15.8527 7.47456 14.0933 6.57811 11.9999 6.57811C11.644 6.57811 11.2984 6.60325 10.9638 6.65136C10.5265 6.71406 10.1213 6.41086 10.0585 5.97362C9.99565 5.53638 10.299 5.13133 10.7362 5.06835C11.1447 5.00963 11.5663 4.97753 11.9999 4.97753ZM3.80068 12.0283L3.80166 12.0303C3.80155 12.0296 3.8002 12.0279 3.7997 12.0254C3.79979 12.0264 3.8006 12.0274 3.80068 12.0283ZM20.1981 12.0303L20.1991 12.0283C20.1992 12.0274 20.199 12.0264 20.1991 12.0254C20.1986 12.0279 20.1982 12.0296 20.1981 12.0303ZM20.1991 11.9736V11.9717L20.1981 11.9697C20.1982 11.9703 20.1988 11.9717 20.1991 11.9736ZM10.0575 12C10.0575 13.0099 10.9056 13.8662 11.9999 13.8662C12.2317 13.8662 12.4521 13.8248 12.6571 13.7539L10.1806 11.3467C10.1012 11.5507 10.0575 11.7705 10.0575 12Z" fill="#28303A"/>
</svg>
