<svg width="24" height="24" viewBox="0 0 24 24" fill="none" xmlns="http://www.w3.org/2000/svg">
<path d="M11.9996 5.2002C14.5643 5.2002 16.6655 6.26254 18.2359 7.49121C19.8031 8.71754 20.8805 10.1384 21.4214 10.9414C21.5171 11.0835 21.6457 11.2621 21.7261 11.5088L21.7574 11.6182L21.7886 11.8027C21.8099 11.9956 21.7999 12.2078 21.7574 12.3818C21.6828 12.6865 21.5307 12.8964 21.4214 13.0586C20.8805 13.8616 19.8031 15.2825 18.2359 16.5088C16.6655 17.7375 14.5643 18.7998 11.9996 18.7998C9.4348 18.7998 7.33358 17.7375 5.76322 16.5088C4.196 15.2825 3.11861 13.8616 2.57768 13.0586C2.4684 12.8964 2.31628 12.6865 2.24174 12.3818C2.18505 12.1499 2.18505 11.8501 2.24174 11.6182L2.27299 11.5088C2.35338 11.2621 2.48199 11.0835 2.57768 10.9414C3.11861 10.1384 4.196 8.71754 5.76322 7.49121C7.33358 6.26254 9.4348 5.2002 11.9996 5.2002ZM11.9996 6.7998C9.89728 6.7998 8.13351 7.66827 6.74857 8.75195C5.36089 9.83786 4.39187 11.1115 3.90385 11.8359C3.87175 11.8836 3.84875 11.9177 3.82963 11.9473C3.81442 11.9707 3.80519 11.986 3.79936 11.9961V12.0029C3.80516 12.013 3.81405 12.0287 3.82963 12.0527C3.84875 12.0823 3.87175 12.1164 3.90385 12.1641C4.39187 12.8885 5.36089 14.1621 6.74857 15.248C8.13351 16.3317 9.89728 17.2002 11.9996 17.2002C14.1018 17.2002 15.8656 16.3317 17.2505 15.248C18.6382 14.1621 19.6072 12.8885 20.0953 12.1641C20.1274 12.1164 20.1503 12.0823 20.1695 12.0527C20.1848 12.029 20.1929 12.013 20.1988 12.0029L20.1997 12C20.1997 11.9987 20.1988 11.9974 20.1988 11.9961C20.1929 11.986 20.1845 11.9704 20.1695 11.9473C20.1503 11.9177 20.1274 11.8836 20.0953 11.8359C19.6072 11.1115 18.6382 9.83786 17.2505 8.75195C15.8656 7.66827 14.1018 6.7998 11.9996 6.7998ZM13.9419 12C13.9419 11.0695 13.1219 10.2285 11.9996 10.2285C10.8772 10.2285 10.0572 11.0695 10.0572 12C10.0572 12.9305 10.8772 13.7715 11.9996 13.7715C13.1219 13.7715 13.9419 12.9305 13.9419 12ZM15.5425 12C15.5425 13.9098 13.9068 15.3711 11.9996 15.3711C10.0923 15.3711 8.45658 13.9098 8.45658 12C8.45658 10.0902 10.0923 8.62891 11.9996 8.62891C13.9068 8.62891 15.5425 10.0902 15.5425 12Z" fill="#28303A"/>
</svg>
