<svg width="20" height="20" viewBox="0 0 20 20" fill="none" xmlns="http://www.w3.org/2000/svg">
<path d="M11.668 0.833008L18.334 7.74023V17.834C18.3338 18.9384 17.4384 19.834 16.334 19.834H5.33398C4.22955 19.834 3.3342 18.9384 3.33398 17.834V2.83301C3.33411 1.72855 4.2295 0.833008 5.33398 0.833008H11.668Z" fill="#D0DBFF"/>
<path d="M11.667 4.99992C11.667 6.38063 12.7863 7.49992 14.167 7.49992H18.3337L11.667 0.833252V4.99992Z" fill="#81A0FF"/>
<rect x="1.66699" y="8.33337" width="15" height="9.16667" rx="2" fill="#3661E5"/>
<path d="M6.41406 13.3918C6.41403 13.6693 6.37262 13.9141 6.29102 14.1262C6.20938 14.3384 6.09517 14.5167 5.94824 14.6604C5.80461 14.804 5.63106 14.9118 5.42871 14.9836C5.22966 15.0586 5.01063 15.0959 4.77246 15.0959C4.68137 15.0958 4.62444 15.0585 4.60156 14.9836L4.48926 14.5813C4.85452 14.5486 5.13362 14.453 5.32617 14.2932C5.51883 14.1332 5.61523 13.8844 5.61523 13.5481V11.6819H4.76758V11.1086H6.41406V13.3918ZM11.9414 11.0012C12.183 11.0012 12.4147 11.0239 12.6367 11.0696C12.862 11.1153 13.0645 11.181 13.2441 11.2659V11.8586C13.2441 11.9074 13.2279 11.9384 13.1953 11.9514C13.1627 11.9644 13.1286 11.9546 13.0928 11.9221C12.9458 11.8176 12.7773 11.7325 12.5879 11.6672C12.4018 11.6019 12.2057 11.5696 12 11.5696C11.7813 11.5696 11.5965 11.6068 11.4463 11.6819C11.2962 11.7537 11.1737 11.8534 11.0791 11.9807C10.9877 12.1081 10.9214 12.2604 10.8789 12.4368C10.8398 12.6096 10.8194 12.7971 10.8193 12.9993C10.8193 13.4695 10.9141 13.8325 11.1035 14.0872C11.2961 14.3418 11.6017 14.469 12.0195 14.469C12.1435 14.469 12.2628 14.4576 12.377 14.4348C12.4911 14.4087 12.5958 14.3763 12.6904 14.3372V13.5188C12.6904 13.4404 12.6807 13.3764 12.6611 13.3274C12.6448 13.2786 12.6139 13.2281 12.5684 13.176C12.5391 13.1402 12.531 13.1093 12.5439 13.0833C12.5603 13.0539 12.5862 13.0384 12.6221 13.0383H13.4893V14.4446C13.4892 14.5229 13.4462 14.6 13.3613 14.675C13.2765 14.7467 13.1636 14.8101 13.0234 14.8655C12.8864 14.9177 12.7299 14.9608 12.5537 14.9934C12.3774 15.0261 12.1975 15.0422 12.0146 15.0422C11.3486 15.0422 10.8503 14.8688 10.5205 14.5227C10.1909 14.1733 10.0264 13.6652 10.0264 12.9993C10.0264 12.7121 10.0636 12.4462 10.1387 12.2014C10.217 11.9566 10.3346 11.7459 10.4912 11.5696C10.6479 11.39 10.8456 11.2505 11.084 11.1526C11.3256 11.0514 11.6116 11.0012 11.9414 11.0012ZM8.57129 11.1086C8.77371 11.1086 8.95363 11.1387 9.11035 11.1975C9.26682 11.2562 9.3992 11.3373 9.50684 11.4417C9.61459 11.5461 9.69644 11.6743 9.75195 11.8245C9.80735 11.9745 9.83493 12.1393 9.83496 12.3186C9.83496 12.5015 9.80746 12.6684 9.75195 12.8186C9.69646 12.9655 9.61455 13.0911 9.50684 13.1956C9.39914 13.3 9.26698 13.3819 9.11035 13.4407C8.95363 13.4962 8.77371 13.5237 8.57129 13.5237H7.87598V14.9299H7.07715V11.6038C7.07715 11.5189 7.06744 11.4516 7.04785 11.4026C7.03151 11.3538 7.0006 11.3033 6.95508 11.2512C6.92578 11.2154 6.91777 11.1829 6.93066 11.1536C6.94373 11.1242 6.96799 11.1086 7.00391 11.1086H8.57129ZM7.87598 12.9553H8.37012C8.58235 12.9553 8.74607 12.9036 8.86035 12.7991C8.9779 12.6946 9.03613 12.5341 9.03613 12.3186C9.03609 12.1033 8.97772 11.9436 8.86035 11.8391C8.74606 11.7346 8.58237 11.6819 8.37012 11.6819H7.87598V12.9553Z" fill="white"/>
</svg>
