<svg width="24" height="24" viewBox="0 0 24 24" fill="none" xmlns="http://www.w3.org/2000/svg">
<path d="M4 16.7836V7.21641C4 6.45676 3.99919 5.83831 4.03927 5.33794C4.08009 4.82837 4.16709 4.37068 4.3802 3.94398C4.71483 3.27409 5.24904 2.72919 5.90579 2.38786C6.32411 2.17049 6.77283 2.08175 7.27239 2.04011C7.76295 1.99923 8.36927 2.00006 9.11401 2.00006H12.01C12.6343 2.00006 13.0748 1.99434 13.4973 2.09774C13.6973 2.14671 13.8917 2.21621 14.0796 2.29995C14.1148 2.31346 14.1485 2.32951 14.1811 2.34781C14.292 2.40165 14.4017 2.45896 14.5067 2.52462C14.8773 2.75629 15.1847 3.07751 15.6262 3.52784L18.5022 6.46033C18.9437 6.91074 19.2586 7.22518 19.4857 7.60324C19.549 7.70858 19.6041 7.81835 19.6562 7.92951C19.6755 7.96473 19.6919 8.00164 19.706 8.03989C19.7878 8.23105 19.8553 8.42844 19.9032 8.63186C20.0047 9.06297 20 9.51204 20 10.1489V16.7836C20 17.5433 20.0008 18.1617 19.9607 18.6621C19.9199 19.1716 19.8329 19.6294 19.6198 20.0561C19.2851 20.726 18.7509 21.2709 18.0942 21.6122C17.6758 21.8297 17.2263 21.9183 16.7266 21.9599C16.2361 22.0008 15.6305 22 14.886 22H9.11401C8.36927 22 7.76295 22.0008 7.27239 21.9599C6.77286 21.9183 6.32409 21.8295 5.90579 21.6122C5.24904 21.2709 4.71483 20.726 4.3802 20.0561C4.16706 19.6294 4.08011 19.1717 4.03927 18.6621C3.99919 18.1617 4 17.5433 4 16.7836ZM13.8038 15.8C14.237 15.8 14.5881 16.1581 14.5881 16.6C14.588 17.0418 14.2369 17.4 13.8038 17.4H8.39192C7.95877 17.4 7.60768 17.0418 7.60758 16.6C7.60758 16.1581 7.9587 15.8 8.39192 15.8H13.8038ZM15.6071 12.1192C16.0404 12.1192 16.3924 12.4783 16.3924 12.9202C16.3922 13.362 16.0403 13.7203 15.6071 13.7203H8.39192C7.95881 13.7202 7.60776 13.362 7.60758 12.9202C7.60758 12.4783 7.9587 12.1193 8.39192 12.1192H15.6071ZM5.56868 16.7836C5.56868 17.5696 5.56952 18.1112 5.60316 18.5312C5.63605 18.9419 5.69672 19.1657 5.77841 19.3293C5.96261 19.698 6.25679 19.9981 6.6183 20.186C6.77864 20.2692 6.99835 20.3312 7.40072 20.3648C7.81251 20.399 8.34363 20.3999 9.11401 20.3999H14.886C15.6566 20.3999 16.1874 20.3991 16.5992 20.3648C17.0019 20.3312 17.2213 20.2693 17.3817 20.186C17.7432 19.9981 18.0374 19.698 18.2216 19.3293C18.3032 19.1657 18.3639 18.9418 18.3968 18.5312C18.4304 18.1112 18.4303 17.5696 18.4303 16.7836V10.1489C18.4303 9.56348 18.4256 9.30656 18.3978 9.12029H15.247C15.0074 9.12029 14.7798 9.12047 14.59 9.10466C14.3912 9.08806 14.1651 9.04984 13.9398 8.93273C13.6225 8.7678 13.365 8.50418 13.2033 8.18056C13.0885 7.95062 13.05 7.72012 13.0338 7.51728C13.0183 7.32379 13.0194 7.09244 13.0194 6.84814V3.63432C12.8368 3.60589 12.5846 3.60013 12.01 3.60013H9.11401C8.34361 3.60013 7.81251 3.60101 7.40072 3.6353C6.99826 3.66884 6.77865 3.73078 6.6183 3.81406C6.25679 4.00194 5.96261 4.30201 5.77841 4.67075C5.69677 4.83431 5.63604 5.05832 5.60316 5.46884C5.56954 5.88886 5.56868 6.4306 5.56868 7.21641V16.7836ZM14.5881 6.84814C14.5881 7.11892 14.5886 7.27411 14.5977 7.38736C14.601 7.42818 14.6059 7.45219 14.6082 7.46453C14.6173 7.47875 14.6287 7.49052 14.6427 7.4997C14.6549 7.50208 14.6786 7.50616 14.7184 7.50947C14.8294 7.51871 14.9816 7.52021 15.247 7.52021H17.3213L14.5881 4.73132V6.84814Z" fill="#28303A"/>
</svg>
