<svg width="20" height="20" viewBox="0 0 20 20" fill="none" xmlns="http://www.w3.org/2000/svg">
<path d="M11.668 0.833252L18.334 7.50024V17.8333C18.334 18.9378 17.4386 19.8333 16.334 19.8333H5.33398C4.22941 19.8333 3.33398 18.9378 3.33398 17.8333V2.83325C3.33398 1.72868 4.22942 0.833252 5.33398 0.833252H11.668Z" fill="#E1E7EE"/>
<path d="M11.667 4.99992C11.667 6.38063 12.7863 7.49992 14.167 7.49992H18.3337L11.667 0.833252V4.99992Z" fill="#A2A9B3"/>
<path d="M10.3123 12.6307L6.22501 16.718C5.72428 17.2187 5.04515 17.5 4.33702 17.5C3.62888 17.5 2.94975 17.2187 2.44902 16.718C1.9483 16.2173 1.66699 15.5382 1.66699 14.83C1.66699 14.1219 1.9483 13.4428 2.44902 12.942L6.53634 8.85473C6.87016 8.52091 7.32291 8.33337 7.795 8.33337C8.26709 8.33337 8.71984 8.52091 9.05366 8.85473C9.38748 9.18854 9.57501 9.6413 9.57501 10.1134C9.57501 10.5855 9.38748 11.0382 9.05366 11.372L4.9619 15.4594C4.79499 15.6263 4.56861 15.72 4.33257 15.72C4.09652 15.72 3.87015 15.6263 3.70324 15.4594C3.53633 15.2924 3.44256 15.0661 3.44256 14.83C3.44256 14.594 3.53633 14.3676 3.70324 14.2007L7.47922 10.4292" stroke="#0A38C2" stroke-width="1.03745" stroke-linecap="round" stroke-linejoin="round"/>
</svg>
