<svg width="20" height="20" viewBox="0 0 20 20" fill="none" xmlns="http://www.w3.org/2000/svg">
<path d="M11.668 0.833008L18.334 7.74023V17.834C18.3338 18.9384 17.4384 19.834 16.334 19.834H5.33398C4.22955 19.834 3.3342 18.9384 3.33398 17.834V2.83301C3.33411 1.72855 4.2295 0.833008 5.33398 0.833008H11.668Z" fill="#D0DBFF"/>
<path d="M11.667 4.99992C11.667 6.38063 12.7863 7.49992 14.167 7.49992H18.3337L11.667 0.833252V4.99992Z" fill="#81A0FF"/>
<rect x="1.66699" y="8.33337" width="15" height="9.16667" rx="2" fill="#3661E5"/>
<path d="M5.56836 11.0386C5.7642 11.0386 5.94299 11.061 6.10352 11.106C6.26388 11.1477 6.39873 11.2101 6.50781 11.2935C6.62012 11.3737 6.70658 11.4736 6.76758 11.5923C6.82851 11.7077 6.85931 11.8377 6.85938 11.9819C6.85938 12.3479 6.71807 12.6165 6.43555 12.7866C6.63139 12.8605 6.7844 12.9726 6.89355 13.1235C7.00588 13.2712 7.06152 13.4708 7.06152 13.7212C7.06148 13.8976 7.02659 14.0533 6.95605 14.188C6.88868 14.3227 6.79208 14.435 6.66699 14.5249C6.54178 14.6148 6.39044 14.6821 6.21387 14.7271C6.03743 14.7719 5.84185 14.7944 5.62695 14.7944H4.31641V11.5249C4.3164 11.4416 4.30728 11.3758 4.28809 11.3276C4.27204 11.2795 4.24123 11.2296 4.19629 11.1782C4.16739 11.1429 4.15903 11.1104 4.17188 11.0815C4.1847 11.0528 4.20905 11.0387 4.24414 11.0386H5.56836ZM9.20312 13.7446L10.1045 11.0386H10.9883V14.7944H10.3027V12.4878L10.3154 12.0454L10.1924 12.4595L9.48047 14.6313H8.92676L8.21387 12.4595L8.09082 12.0454L8.10449 12.4878V14.7944H7.41797V11.4722C7.41504 11.408 7.40527 11.3547 7.3877 11.313C7.37306 11.2681 7.34662 11.2231 7.30859 11.1782C7.28221 11.1429 7.27441 11.1104 7.28613 11.0815C7.29788 11.0528 7.32038 11.0386 7.35254 11.0386H8.30176L9.20312 13.7446ZM12.9238 11.0386C13.1227 11.0386 13.2991 11.0678 13.4531 11.1255C13.6072 11.1833 13.7378 11.263 13.8438 11.3657C13.9497 11.4685 14.0294 11.594 14.084 11.7417C14.1386 11.8894 14.166 12.0515 14.166 12.228C14.166 12.4078 14.1386 12.5716 14.084 12.7192C14.0294 12.8637 13.9497 12.9876 13.8438 13.0903C13.7378 13.1931 13.6072 13.2728 13.4531 13.3306C13.2991 13.3851 13.1227 13.4126 12.9238 13.4126H12.2402V14.7944H11.4551V11.5249C11.4551 11.4415 11.445 11.3758 11.4258 11.3276C11.4098 11.2796 11.3798 11.2295 11.335 11.1782C11.3061 11.1429 11.2977 11.1104 11.3105 11.0815C11.3234 11.0529 11.3476 11.0386 11.3828 11.0386H12.9238ZM5.10156 14.2603H5.58301C5.81095 14.2603 5.97971 14.2137 6.08887 14.1206C6.19802 14.0275 6.25293 13.8795 6.25293 13.6772C6.25287 13.4752 6.19619 13.3296 6.08398 13.2397C5.97483 13.1499 5.80607 13.104 5.57812 13.104H5.10156V14.2603ZM12.2402 12.854H12.7266C12.9351 12.854 13.0957 12.8024 13.208 12.6997C13.3234 12.597 13.3809 12.4398 13.3809 12.228C13.3809 12.0163 13.3234 11.8591 13.208 11.7563C13.0957 11.6537 12.9351 11.6021 12.7266 11.6021H12.2402V12.854ZM5.10156 12.5698H5.51562C5.69842 12.5698 5.83659 12.5332 5.92969 12.4595C6.026 12.3856 6.07422 12.2567 6.07422 12.0737C6.07419 11.8908 6.02597 11.7628 5.92969 11.689C5.83337 11.6119 5.69039 11.5728 5.50098 11.5728H5.10156V12.5698Z" fill="white"/>
</svg>
