<svg width="20" height="20" viewBox="0 0 20 20" fill="none" xmlns="http://www.w3.org/2000/svg">
<path d="M11.668 0.833008L18.334 7.74023V17.834C18.3338 18.9384 17.4384 19.834 16.334 19.834H5.33398C4.22955 19.834 3.3342 18.9384 3.33398 17.834V2.83301C3.33411 1.72855 4.2295 0.833008 5.33398 0.833008H11.668Z" fill="#D0DBFF"/>
<path d="M11.667 4.99992C11.667 6.38063 12.7863 7.49992 14.167 7.49992H18.3337L11.667 0.833252V4.99992Z" fill="#81A0FF"/>
<rect x="1.66699" y="8.33337" width="15" height="9.16667" rx="2" fill="#3661E5"/>
<path d="M6.85156 10.7358C7.12411 10.7358 7.38627 10.7614 7.63672 10.813C7.89062 10.8645 8.11886 10.938 8.32129 11.0337V11.7026C8.32128 11.7577 8.30317 11.7923 8.2666 11.8071C8.22985 11.8218 8.19081 11.8115 8.15039 11.7749C7.98465 11.657 7.79467 11.5605 7.58105 11.4868C7.37121 11.4132 7.14989 11.3765 6.91797 11.3765C6.67138 11.3765 6.46328 11.4188 6.29395 11.5034C6.12466 11.5844 5.98666 11.6969 5.87988 11.8403C5.77676 11.984 5.7012 12.1561 5.65332 12.355C5.60919 12.55 5.58692 12.7616 5.58691 12.9897C5.58691 13.5201 5.69363 13.929 5.90723 14.2163C6.12453 14.5036 6.46899 14.647 6.94043 14.647C7.08037 14.647 7.21485 14.6347 7.34375 14.6089C7.47258 14.5794 7.59051 14.5427 7.69727 14.4985V13.5757C7.69727 13.4873 7.68616 13.4151 7.66406 13.3599C7.64567 13.3048 7.61093 13.2477 7.55957 13.189C7.52642 13.1485 7.51652 13.113 7.53125 13.0835C7.54967 13.0504 7.57964 13.0337 7.62012 13.0337H8.59766V14.6196C8.59766 14.708 8.54986 14.7947 8.4541 14.8794C8.35837 14.9604 8.23153 15.0326 8.07324 15.0952C7.91862 15.1541 7.74174 15.2019 7.54297 15.2388C7.34408 15.2756 7.14082 15.2935 6.93457 15.2935C6.18358 15.2934 5.62194 15.0986 5.25 14.7085C4.87801 14.3144 4.69238 13.7411 4.69238 12.9897C4.69239 12.6657 4.73463 12.3656 4.81934 12.0894C4.90773 11.8132 5.04003 11.5753 5.2168 11.3765C5.39351 11.174 5.61608 11.0172 5.88477 10.9067C6.1572 10.7926 6.47977 10.7359 6.85156 10.7358ZM10.3086 15.1665H9.4082V11.4155C9.4082 11.3199 9.39704 11.2442 9.375 11.189C9.35661 11.1338 9.321 11.0769 9.26953 11.0181C9.23638 10.9776 9.22746 10.9399 9.24219 10.9067C9.25696 10.8739 9.28484 10.8569 9.3252 10.8569H10.3086V15.1665ZM13.6914 11.5034H12.0234V12.686H13.5371V13.3325H12.0234V15.1665H11.1221V11.4155C11.1221 11.3199 11.1119 11.2442 11.0898 11.189C11.0715 11.1338 11.0358 11.0769 10.9844 11.0181C10.9512 10.9776 10.9423 10.9399 10.957 10.9067C10.9718 10.8739 10.9997 10.8569 11.04 10.8569H13.6914V11.5034Z" fill="white"/>
</svg>
