<svg width="20" height="20" viewBox="0 0 20 20" fill="none" xmlns="http://www.w3.org/2000/svg">
<path d="M11.668 0.833008L18.334 7.74023V17.834C18.3338 18.9384 17.4384 19.834 16.334 19.834H5.33398C4.22955 19.834 3.3342 18.9384 3.33398 17.834V2.83301C3.33411 1.72855 4.2295 0.833008 5.33398 0.833008H11.668Z" fill="#E1E7EE"/>
<path d="M11.667 4.99992C11.667 6.38063 12.7863 7.49992 14.167 7.49992H18.3337L11.667 0.833252V4.99992Z" fill="#A2A9B3"/>
<rect x="1.66699" y="8.33337" width="15" height="9.16667" rx="2" fill="#6A7583"/>
<path d="M7.79688 11.2109C7.79685 11.2819 7.78441 11.3471 7.76074 11.4062C7.73705 11.4655 7.70931 11.5229 7.67773 11.5781L5.87695 14.6348H7.83789V15.3223H4.6748V14.8242L6.66504 11.3945H4.7627V10.7012H7.79688V11.2109ZM9.47266 15.3223H8.50684V11.2998C8.50684 11.1972 8.49536 11.1159 8.47168 11.0566C8.45196 10.9975 8.41454 10.9361 8.35938 10.873C8.32395 10.8298 8.31353 10.7903 8.3291 10.7549C8.34488 10.7194 8.37461 10.7012 8.41797 10.7012H9.47266V15.3223ZM12.1465 10.7012C12.3912 10.7012 12.6084 10.7366 12.7979 10.8076C12.9874 10.8787 13.147 10.9781 13.2773 11.1045C13.4077 11.2309 13.5071 11.3847 13.5742 11.5664C13.6412 11.7479 13.6748 11.9471 13.6748 12.1641C13.6748 12.3851 13.6413 12.587 13.5742 12.7686C13.5071 12.9463 13.4077 13.0982 13.2773 13.2246C13.147 13.351 12.9874 13.4504 12.7979 13.5215C12.6084 13.5886 12.3912 13.622 12.1465 13.6221H11.3047V15.3223H10.3389V11.2998C10.3389 11.1971 10.3274 11.1159 10.3037 11.0566C10.284 10.9974 10.2466 10.9362 10.1914 10.873C10.156 10.8298 10.1456 10.7903 10.1611 10.7549C10.1769 10.7194 10.2068 10.7013 10.25 10.7012H12.1465ZM11.3047 12.9346H11.9033C12.16 12.9346 12.3579 12.8715 12.4961 12.7451C12.6381 12.6187 12.709 12.4246 12.709 12.1641C12.7089 11.9038 12.638 11.7103 12.4961 11.584C12.3579 11.4576 12.16 11.3945 11.9033 11.3945H11.3047V12.9346Z" fill="white"/>
</svg>
