<svg width="20" height="20" viewBox="0 0 20 20" fill="none" xmlns="http://www.w3.org/2000/svg">
<path d="M11.3945 0.5L18.0615 7.40918V17.4277C18.0613 18.5723 17.1329 19.5 15.9883 19.5H5.13379C3.98917 19.5 3.06077 18.5723 3.06055 17.4277V2.57227C3.06068 1.42762 3.98912 0.5 5.13379 0.5H11.3945Z" fill="#FFE3C9"/>
<path d="M11.667 4.99992C11.667 6.38063 12.7863 7.49992 14.167 7.49992H18.3337L11.667 0.833252V4.99992Z" fill="#FB9C43"/>
<rect x="1.66699" y="7.5" width="10" height="10" rx="2" fill="#BD4D02"/>
<path d="M5.54809 13.4234H7.15971C7.52753 13.4234 7.84936 13.353 8.12523 13.2121C8.40109 13.0711 8.61525 12.8725 8.7677 12.6161C8.92256 12.3597 9 12.0594 9 11.7152V11.7082C9 11.3664 8.92256 11.0672 8.7677 10.8108C8.61525 10.5544 8.40109 10.3557 8.12523 10.2148C7.84936 10.0716 7.52753 10 7.15971 10H5.54809V10.8281H6.89111C7.20569 10.8281 7.45009 10.9044 7.62432 11.0568C7.80097 11.2093 7.88929 11.4276 7.88929 11.7117V11.7186C7.88929 12.0028 7.80097 12.2222 7.62432 12.377C7.45009 12.5295 7.20569 12.6057 6.89111 12.6057H5.54809V13.4234ZM5 15H6.09619V10H5V15Z" fill="white"/>
</svg>
