<svg width="20" height="20" viewBox="0 0 20 20" fill="none" xmlns="http://www.w3.org/2000/svg">
<path d="M11.668 0.833008L18.334 7.74023V17.834C18.3338 18.9384 17.4384 19.834 16.334 19.834H5.33398C4.22955 19.834 3.3342 18.9384 3.33398 17.834V2.83301C3.33411 1.72855 4.2295 0.833008 5.33398 0.833008H11.668Z" fill="#D0DBFF"/>
<path d="M11.667 4.99992C11.667 6.38063 12.7863 7.49992 14.167 7.49992H18.3337L11.667 0.833252V4.99992Z" fill="#81A0FF"/>
<rect x="1.66699" y="8.33337" width="15" height="9.16667" rx="2" fill="#3661E5"/>
<path d="M12.5508 10.9884C12.7929 10.9884 13.0255 11.011 13.248 11.0568C13.474 11.1026 13.6773 11.1689 13.8574 11.254V11.8478C13.8574 11.8969 13.8413 11.9284 13.8086 11.9415C13.7759 11.9546 13.7411 11.945 13.7051 11.9122C13.5577 11.8074 13.3891 11.7219 13.1992 11.6564C13.0127 11.591 12.8164 11.5578 12.6104 11.5577C12.3909 11.5577 12.2053 11.5957 12.0547 11.671C11.9041 11.7431 11.7815 11.8431 11.6865 11.9708C11.5948 12.0985 11.5279 12.251 11.4854 12.4279C11.4461 12.6013 11.4258 12.7894 11.4258 12.9923C11.4258 13.4639 11.521 13.8277 11.7109 14.0831C11.9041 14.3385 12.2107 14.4659 12.6299 14.4659C12.7542 14.4659 12.8737 14.4547 12.9883 14.4318C13.1029 14.4056 13.2078 14.3724 13.3027 14.3331V13.5128C13.3027 13.4344 13.2931 13.3705 13.2734 13.3214C13.2571 13.2723 13.2255 13.2214 13.1797 13.1691C13.1504 13.1332 13.1423 13.1024 13.1553 13.0763C13.1716 13.0469 13.1976 13.0315 13.2334 13.0314H14.1035V14.4415C14.1035 14.52 14.0606 14.5968 13.9756 14.672C13.8904 14.744 13.7775 14.8087 13.6367 14.8644C13.4992 14.9168 13.3418 14.9586 13.165 14.9913C12.9883 15.0241 12.8083 15.0411 12.625 15.0411C11.9573 15.0411 11.4577 14.8674 11.127 14.5206C10.7962 14.1702 10.6309 13.6603 10.6309 12.9923C10.6309 12.7042 10.6679 12.4371 10.7432 12.1915C10.8218 11.946 10.9395 11.7345 11.0967 11.5577C11.2538 11.3777 11.4524 11.239 11.6914 11.1407C11.9337 11.0393 12.2201 10.9884 12.5508 10.9884ZM5.75488 11.0968C5.95778 11.0968 6.13781 11.1258 6.29492 11.1847C6.45211 11.2436 6.5853 11.326 6.69336 11.4308C6.80126 11.5355 6.88286 11.6631 6.93848 11.8136C6.99414 11.9642 7.02246 12.1296 7.02246 12.3097C7.02246 12.4931 6.99415 12.66 6.93848 12.8107C6.88286 12.9579 6.80126 13.0839 6.69336 13.1886C6.5853 13.2934 6.45211 13.3757 6.29492 13.4347C6.13781 13.4903 5.95779 13.5177 5.75488 13.5177H5.05762V14.9279H4.25684V11.5929C4.25684 11.5078 4.24719 11.4399 4.22754 11.3907C4.21114 11.3417 4.17955 11.2907 4.13379 11.2384C4.10458 11.2026 4.09637 11.1701 4.10938 11.1407C4.12242 11.1114 4.14683 11.0969 4.18262 11.0968H5.75488ZM9.2041 13.1251L9.5918 13.8419L9.54297 13.0118V11.0968H10.3379V14.9279H9.55273L8.36816 12.8448L8.01465 12.1622L8.05957 13.0118V14.9279H7.25879V11.5929C7.25879 11.5078 7.24914 11.4399 7.22949 11.3907C7.2131 11.3417 7.18151 11.2907 7.13574 11.2384C7.10647 11.2025 7.09828 11.1701 7.11133 11.1407C7.12439 11.1114 7.1487 11.0969 7.18457 11.0968H8.03418L9.2041 13.1251ZM5.05762 12.9484H5.55371C5.76646 12.9483 5.93035 12.8959 6.04492 12.7911C6.16274 12.6863 6.22168 12.5258 6.22168 12.3097C6.22168 12.0936 6.16275 11.933 6.04492 11.8282C5.93035 11.7235 5.76646 11.6711 5.55371 11.671H5.05762V12.9484Z" fill="white"/>
</svg>
