<svg width="20" height="20" viewBox="0 0 20 20" fill="none" xmlns="http://www.w3.org/2000/svg">
<path d="M11.668 0.833008L18.334 7.74023V17.834C18.3338 18.9384 17.4384 19.834 16.334 19.834H5.33398C4.22955 19.834 3.3342 18.9384 3.33398 17.834V2.83301C3.33411 1.72855 4.2295 0.833008 5.33398 0.833008H11.668Z" fill="#DED3FF"/>
<path d="M11.667 4.99992C11.667 6.38063 12.7863 7.49992 14.167 7.49992H18.3337L11.667 0.833252V4.99992Z" fill="#927CF1"/>
<rect x="1.66699" y="7.5" width="10" height="10" rx="2" fill="#461DAD"/>
<path d="M3.8883 11.2445C3.85172 11.1256 3.81284 11.0319 3.77168 10.9633C3.73052 10.8947 3.68479 10.8352 3.63449 10.7849C3.58418 10.7346 3.56589 10.6866 3.57961 10.6409C3.59333 10.5951 3.62534 10.5723 3.67564 10.5723H4.80754L5.39063 12.7949L5.53469 13.4123L5.67189 12.7949L6.25498 10.8055H7.03702L7.62697 12.8017L7.75731 13.4123L7.89451 12.7949L8.50504 10.5723H9.5752L8.40215 14.4276H7.35257L6.76948 12.5685L6.65286 12.1089L6.53624 12.5685L5.96001 14.4276H4.86241L3.8883 11.2445Z" fill="white"/>
</svg>
