<svg width="20" height="20" viewBox="0 0 20 20" fill="none" xmlns="http://www.w3.org/2000/svg">
<path d="M11.668 0.833008L18.334 7.74023V17.834C18.3338 18.9384 17.4384 19.834 16.334 19.834H5.33398C4.22955 19.834 3.3342 18.9384 3.33398 17.834V2.83301C3.33411 1.72855 4.2295 0.833008 5.33398 0.833008H11.668Z" fill="#D2E2FF"/>
<path d="M11.667 4.99992C11.667 6.38063 12.7863 7.49992 14.167 7.49992H18.3337L11.667 0.833252V4.99992Z" fill="#66AAFF"/>
<rect x="1.66699" y="7.5" width="10" height="10" rx="2" fill="#0156A8"/>
<path d="M5.76074 9.6023C5.76074 9.6023 6.79922 9.59091 7.70076 10.5837C7.70076 10.5837 7.27853 9.14583 6.3884 9.16866C6.3884 9.16866 5.86342 9.1116 5.76074 9.6023Z" fill="white"/>
<path d="M7.81551 11.0403C7.81551 11.0403 6.81767 9.86488 5.48745 9.97899C5.48745 9.97899 4.40332 9.92193 4.54028 11.0175C4.54028 11.0175 5.91021 10.6866 6.61179 11.0974C6.61179 11.0974 4.59732 11.3599 4.71144 12.9918C4.71144 12.9918 4.67722 14.3612 6.43466 14.2471C6.43466 14.2471 8.32907 14.0873 8.11223 11.8163C8.11223 11.8163 8.48184 11.8506 8.77413 12.0332C8.77413 12.0332 9.07808 11.0151 7.81551 11.0403ZM6.73136 13.414C5.73852 13.7221 5.76135 12.8776 5.76135 12.8776C5.82982 11.7935 7.16502 11.7592 7.16502 11.7592C7.84969 12.9461 6.73136 13.414 6.73136 13.414Z" fill="white"/>
<path d="M6.48059 15.8334C6.73901 15.8334 6.94849 15.6239 6.94849 15.3655C6.94849 15.1071 6.73901 14.8976 6.48059 14.8976C6.22218 14.8976 6.0127 15.1071 6.0127 15.3655C6.0127 15.6239 6.22218 15.8334 6.48059 15.8334Z" fill="white"/>
</svg>
