<svg width="20" height="20" viewBox="0 0 20 20" fill="none" xmlns="http://www.w3.org/2000/svg">
<path d="M11.668 0.833008L18.334 7.74023V17.834C18.3338 18.9384 17.4384 19.834 16.334 19.834H5.33398C4.22955 19.834 3.3342 18.9384 3.33398 17.834V2.83301C3.33411 1.72855 4.2295 0.833008 5.33398 0.833008H11.668Z" fill="#FFDDE1"/>
<path d="M11.667 4.99992C11.667 6.38063 12.7863 7.49992 14.167 7.49992H18.3337L11.667 0.833252V4.99992Z" fill="#F25569"/>
<rect x="1.66699" y="7.5" width="10" height="10" rx="2" fill="#BF0018"/>
<path d="M9.5927 13.017C9.14454 12.5516 7.92072 12.7412 7.6277 12.7757C7.19677 12.362 6.90375 11.8621 6.80033 11.6898C6.95546 11.2244 7.05888 10.759 7.07612 10.2591C7.07612 9.82819 6.90375 9.36279 6.42112 9.36279C6.24875 9.36279 6.09361 9.46621 6.00743 9.60411C5.80059 9.96608 5.88677 10.69 6.21427 11.4312C6.02467 11.9656 5.8523 12.4827 5.36967 13.3962C4.8698 13.6031 3.81835 14.0857 3.73216 14.6028C3.69769 14.7579 3.7494 14.9131 3.87006 15.0337C3.99072 15.1371 4.14585 15.1889 4.30098 15.1889C4.93875 15.1889 5.55927 14.3098 5.99019 13.5686C6.35217 13.4479 6.92098 13.2756 7.4898 13.1721C8.16204 13.7582 8.74809 13.8444 9.05836 13.8444C9.47204 13.8444 9.62717 13.672 9.67888 13.5169C9.76507 13.3445 9.71336 13.1549 9.5927 13.017ZM9.16178 13.31C9.14454 13.4307 8.98941 13.5514 8.71362 13.4824C8.38612 13.3962 8.09309 13.2411 7.83454 13.0342C8.05862 12.9998 8.55849 12.9481 8.92046 13.017C9.05836 13.0515 9.19625 13.1377 9.16178 13.31ZM6.28322 9.75924C6.31769 9.70753 6.36941 9.67306 6.42111 9.67306C6.57625 9.67306 6.61072 9.86266 6.61072 10.0178C6.59348 10.3798 6.52454 10.7417 6.40388 11.0865C6.14532 10.397 6.19704 9.91437 6.28322 9.75924ZM6.24875 13.1032C6.38664 12.8274 6.57625 12.3448 6.64519 12.1379C6.80033 12.3965 7.05888 12.7067 7.19677 12.8446C7.19677 12.8619 6.66243 12.9653 6.24875 13.1032ZM5.23177 13.7927C4.83532 14.4477 4.42164 14.8614 4.19756 14.8614C4.16309 14.8614 4.12861 14.8441 4.09414 14.8269C4.04243 14.7924 4.02519 14.7407 4.04243 14.6718C4.09414 14.4304 4.5423 14.1029 5.23177 13.7927Z" fill="white"/>
</svg>
