<svg width="20" height="20" viewBox="0 0 20 20" fill="none" xmlns="http://www.w3.org/2000/svg">
<path d="M11.668 0.833008L18.334 7.74023V17.834C18.3338 18.9384 17.4384 19.834 16.334 19.834H5.33398C4.22955 19.834 3.3342 18.9384 3.33398 17.834V2.83301C3.33411 1.72855 4.2295 0.833008 5.33398 0.833008H11.668Z" fill="#D2FADB"/>
<path d="M11.667 4.99992C11.667 6.38063 12.7863 7.49992 14.167 7.49992H18.3337L11.667 0.833252V4.99992Z" fill="#48C16D"/>
<rect x="1.66699" y="7.5" width="10" height="10" rx="2" fill="#006D2F"/>
<path d="M4.74493 10.7562C4.68071 10.6613 4.61358 10.5738 4.54352 10.4938C4.47347 10.4137 4.40342 10.341 4.33337 10.2758C4.25748 10.2106 4.23121 10.1483 4.25456 10.089C4.27791 10.0297 4.32169 10 4.38591 10H5.65561L6.67137 11.5391L7.72216 10H9.13197L7.3719 12.4911L9.16699 15H7.75718L6.65386 13.4253L5.56804 15H4.16699L5.93582 12.4733L4.74493 10.7562Z" fill="white"/>
</svg>
