<svg width="24" height="24" viewBox="0 0 24 24" fill="none" xmlns="http://www.w3.org/2000/svg">
<path d="M8.00439 2.81745C8.40884 2.6411 8.87951 2.82665 9.05599 3.23117C9.2323 3.63571 9.04777 4.1065 8.64335 4.28302C7.3846 4.83247 6.27986 5.68222 5.42515 6.75751C4.57042 7.83283 3.99188 9.10113 3.74045 10.4517C3.48903 11.8022 3.57191 13.194 3.98237 14.5049C4.39285 15.8158 5.11867 17.0059 6.09532 17.9717C7.07201 18.9375 8.27046 19.6496 9.58569 20.0452C10.9008 20.4407 12.2928 20.5082 13.6399 20.2413C14.9871 19.9744 16.2485 19.3814 17.3137 18.5143C18.3788 17.6472 19.2156 16.5322 19.7505 15.267C19.9224 14.8604 20.3917 14.6696 20.7982 14.8416C21.2046 15.0135 21.3944 15.483 21.2225 15.8895C20.5859 17.3952 19.59 18.7225 18.3223 19.7544C17.0547 20.7863 15.5533 21.4917 13.9501 21.8093C12.3469 22.1269 10.6904 22.0468 9.12525 21.5761C7.55997 21.1054 6.13389 20.2579 4.97154 19.1085C3.80921 17.9591 2.94614 16.5422 2.45765 14.9821C1.96924 13.422 1.86971 11.7661 2.1689 10.159C2.46813 8.55168 3.15637 7.04198 4.17357 5.76225C5.19078 4.48252 6.50632 3.47134 8.00439 2.81745ZM12.0849 2.05637C12.38 1.96752 12.6731 2.00759 12.8068 2.01831C13.8467 2.10175 14.8689 2.34763 15.8358 2.74817C17.0498 3.25116 18.1531 3.98883 19.0823 4.91823C20.0114 5.84763 20.7489 6.95118 21.2518 8.16551C21.6522 9.13261 21.8981 10.1551 21.9815 11.1952C21.9937 11.3479 22.0448 11.7089 21.8976 12.0431C21.7868 12.2945 21.5851 12.5126 21.3435 12.6432C21.161 12.7418 20.9845 12.7725 20.8499 12.7847C20.729 12.7956 20.5908 12.7944 20.4772 12.7944H12.7434C12.6277 12.7944 12.4925 12.7952 12.3756 12.7857C12.2496 12.7753 12.0761 12.7497 11.8957 12.6578C11.6587 12.5371 11.4653 12.3436 11.3445 12.1065C11.2527 11.9261 11.2271 11.7526 11.2167 11.6265C11.2072 11.5096 11.208 11.3744 11.208 11.2586V3.52291C11.208 3.4093 11.2068 3.27107 11.2177 3.15018C11.2299 3.01558 11.2606 2.83901 11.3592 2.65645L11.4118 2.56766C11.5445 2.3657 11.7392 2.1992 11.9591 2.10223L12.0849 2.05637ZM12.8058 11.1962H20.3748C20.2956 10.366 20.0951 9.55052 19.7749 8.7773C19.3523 7.75693 18.7334 6.8291 17.9526 6.04814C17.1719 5.26719 16.2442 4.6481 15.2241 4.22545C14.4511 3.90519 13.6359 3.70366 12.8058 3.62439V11.1962Z" fill="#28303A"/>
</svg>
