<svg width="24" height="24" viewBox="0 0 24 24" fill="none" xmlns="http://www.w3.org/2000/svg">
<path d="M19.2002 11.0302C19.2002 10.4646 19.1937 10.3314 19.1631 10.2196C19.1301 10.0993 19.0757 9.98672 19.0039 9.88759C18.9382 9.79693 18.8422 9.71282 18.4043 9.36513L12.376 4.57802C12.211 4.44702 12.1199 4.37485 12.0498 4.32704C12.0316 4.31465 12.018 4.30749 12.0098 4.30263C12.0031 4.30167 11.9969 4.30167 11.9902 4.30263C11.982 4.30749 11.9684 4.31465 11.9502 4.32704C11.8801 4.37485 11.789 4.44702 11.624 4.57802L5.59571 9.36513C5.15783 9.71282 5.06179 9.79693 4.9961 9.88759C4.92428 9.98672 4.86996 10.0993 4.83692 10.2196C4.80628 10.3314 4.79981 10.4646 4.79981 11.0302V17.5956C4.79981 18.1168 4.80022 18.4612 4.82129 18.7245C4.84161 18.9781 4.8773 19.0872 4.90918 19.1513C5.00519 19.3436 5.15715 19.4976 5.33985 19.5927C5.39698 19.6224 5.4978 19.6571 5.74317 19.6776C5.99865 19.6989 6.33343 19.7001 6.84473 19.7001H17.1553C17.6666 19.7001 18.0014 19.6989 18.2568 19.6776C18.5022 19.6571 18.603 19.6224 18.6602 19.5927C18.8429 19.4976 18.9948 19.3436 19.0908 19.1513C19.1227 19.0872 19.1584 18.9781 19.1787 18.7245C19.1998 18.4612 19.2002 18.1168 19.2002 17.5956V11.0302ZM15.5557 16.0702C15.9974 16.0703 16.3555 16.4282 16.3555 16.87C16.3554 17.3118 15.9974 17.6698 15.5557 17.6698H8.44434C8.00258 17.6698 7.64456 17.3118 7.64454 16.87C7.64454 16.4282 8.00256 16.0703 8.44434 16.0702H15.5557ZM20.7998 17.5956C20.7998 18.0907 20.8008 18.5096 20.7734 18.8515C20.7454 19.2022 20.6842 19.5419 20.5225 19.8661C20.2776 20.3568 19.8848 20.7586 19.3984 21.0116C19.0753 21.1797 18.7369 21.2434 18.3897 21.2724C18.0522 21.3005 17.6396 21.2997 17.1553 21.2997H6.84473C6.3604 21.2997 5.94776 21.3005 5.61036 21.2724C5.26311 21.2434 4.92473 21.1797 4.60157 21.0116C4.11525 20.7586 3.72242 20.3568 3.47754 19.8661C3.31581 19.5419 3.25464 19.2022 3.22657 18.8515C3.19923 18.5096 3.2002 18.0907 3.2002 17.5956V10.6884C3.20305 10.3607 3.21822 10.073 3.29395 9.79677C3.37748 9.49217 3.515 9.20479 3.7002 8.94911C3.92482 8.63906 4.23273 8.40332 4.60059 8.11122L10.6289 3.32411C10.7761 3.20728 10.9197 3.09287 11.0488 3.00478C11.1862 2.91112 11.3509 2.81696 11.5547 2.76064C11.8463 2.68005 12.1537 2.68005 12.4453 2.76064C12.6491 2.81696 12.8138 2.91112 12.9512 3.00478C13.0803 3.09287 13.224 3.20728 13.3711 3.32411L19.3994 8.11122C19.7673 8.40332 20.0752 8.63906 20.2998 8.94911C20.485 9.20479 20.6225 9.49218 20.7061 9.79677C20.7818 10.073 20.797 10.3607 20.7998 10.6884V17.5956Z" fill="#28303A"/>
</svg>
