<svg width="24" height="24" viewBox="0 0 24 24" fill="none" xmlns="http://www.w3.org/2000/svg">
<path d="M12 2C17.5229 2 22 6.47705 22 12C22 17.5229 17.5229 22 12 22C6.47705 22 2 17.5229 2 12C2 6.47705 6.47705 2 12 2ZM12.6758 10.2197C11.9788 10.22 10.3933 10.8925 9 12.0215L9.28809 12.4785C9.7205 12.1902 10.4654 11.9015 10.6338 11.9014C10.7779 11.9014 10.7538 12.0697 10.6338 12.502L9.98535 15.1455C9.60091 16.6352 10.0093 16.9717 10.5859 16.9717C11.1386 16.9716 12.6282 16.4669 13.9736 15.1455L13.6611 14.7129C13.1089 15.145 12.5568 15.3616 12.3643 15.3379C12.2441 15.3379 12.1713 15.169 12.3154 14.6885L13.0605 11.9014C13.3488 10.8683 13.2524 10.2197 12.6758 10.2197ZM12.8203 7C11.8593 7.00006 11.4023 7.74523 11.4023 8.29785C11.3545 8.92234 11.7633 9.30662 12.46 9.30664C13.2769 9.30664 13.9014 8.68157 13.9014 8.00879C13.9012 7.45632 13.541 7 12.8203 7Z" fill="#28303A"/>
</svg>
