<svg width="24" height="24" viewBox="0 0 24 24" fill="none" xmlns="http://www.w3.org/2000/svg">
<path d="M20.2002 12C20.2002 7.47127 16.5287 3.7998 12 3.7998C7.47126 3.7998 3.7998 7.47126 3.7998 12C3.7998 16.5287 7.47127 20.2002 12 20.2002C16.5287 20.2002 20.2002 16.5287 20.2002 12ZM21.7998 12C21.7998 17.4124 17.4124 21.7998 12 21.7998C6.58761 21.7998 2.2002 17.4124 2.2002 12C2.2002 6.58761 6.58761 2.2002 12 2.2002C17.4124 2.2002 21.7998 6.58761 21.7998 12Z" fill="#28303A"/>
<path d="M13.9738 15.1455L13.6614 14.7129C13.1088 15.1455 12.5561 15.3617 12.3639 15.3377C12.2438 15.3377 12.1717 15.1695 12.3158 14.6889L13.0607 11.9017C13.349 10.8685 13.2529 10.2197 12.6763 10.2197C11.9795 10.2197 10.3936 10.8925 9 12.0218L9.28833 12.4784C9.72084 12.19 10.4657 11.9017 10.6339 11.9017C10.7781 11.9017 10.754 12.0699 10.6339 12.5024L9.98514 15.1455C9.6007 16.6352 10.0092 16.9716 10.5858 16.9716C11.1385 16.9716 12.6282 16.467 13.9738 15.1455Z" fill="#28303A"/>
<path d="M13.9017 8.00917C13.9017 8.68195 13.277 9.30668 12.46 9.30668C11.7632 9.30668 11.3547 8.92223 11.4028 8.29751C11.4028 7.74486 11.8593 7 12.8204 7C13.5413 7 13.9017 7.45653 13.9017 8.00917Z" fill="#28303A"/>
</svg>
