<svg width="24" height="24" viewBox="0 0 24 24" fill="none" xmlns="http://www.w3.org/2000/svg">
<path d="M4 4.5H20C21.6569 4.5 23 5.84315 23 7.5V16.5C23 18.1569 21.6569 19.5 20 19.5H4C2.34315 19.5 1 18.1569 1 16.5V7.5C1 5.84315 2.34315 4.5 4 4.5Z" stroke="#28303A" stroke-width="2"/>
<path d="M6 14.5V14.51" stroke="#28303A" stroke-width="2.4" stroke-linecap="round" stroke-linejoin="round"/>
<path d="M6 9.5V9.51" stroke="#28303A" stroke-width="2.4" stroke-linecap="round" stroke-linejoin="round"/>
<path d="M10 9.5V9.51" stroke="#28303A" stroke-width="2.4" stroke-linecap="round" stroke-linejoin="round"/>
<path d="M14 9.5V9.51" stroke="#28303A" stroke-width="2.4" stroke-linecap="round" stroke-linejoin="round"/>
<path d="M18 14.5V14.51" stroke="#28303A" stroke-width="2.4" stroke-linecap="round" stroke-linejoin="round"/>
<path d="M18 9.5V9.51" stroke="#28303A" stroke-width="2.4" stroke-linecap="round" stroke-linejoin="round"/>
<path d="M10 14.5H14" stroke="#28303A" stroke-width="2.4" stroke-linecap="round" stroke-linejoin="round"/>
<path d="M20 18.5V20.5H4V18.5H20ZM22 16.5V7.5C22 6.46435 21.2128 5.613 20.2041 5.51074L20 5.5H4C2.89543 5.5 2 6.39543 2 7.5V16.5C2 17.6046 2.89543 18.5 4 18.5V20.5C1.85996 20.5 0.112115 18.8194 0.00488281 16.7061L0 16.5V7.5C0 5.29086 1.79086 3.5 4 3.5H20L20.2061 3.50488C22.3194 3.61211 24 5.35996 24 7.5V16.5C24 18.64 22.3194 20.3879 20.2061 20.4951L20 20.5V18.5C21.1046 18.5 22 17.6046 22 16.5Z" fill="#28303A"/>
<path d="M4.79883 14.5098V14.5C4.79883 13.8373 5.33628 13.2998 5.99902 13.2998C6.66177 13.2998 7.19922 13.8373 7.19922 14.5V14.5098C7.19922 15.1725 6.66177 15.71 5.99902 15.71C5.33628 15.71 4.79883 15.1725 4.79883 14.5098Z" fill="#28303A"/>
<path d="M4.79883 9.50977V9.5C4.79883 8.83726 5.33628 8.2998 5.99902 8.2998C6.66177 8.2998 7.19922 8.83726 7.19922 9.5V9.50977C7.19922 10.1725 6.66177 10.71 5.99902 10.71C5.33628 10.71 4.79883 10.1725 4.79883 9.50977Z" fill="#28303A"/>
<path d="M8.79883 9.50977V9.5C8.79883 8.83726 9.33628 8.2998 9.99902 8.2998C10.6618 8.2998 11.1992 8.83726 11.1992 9.5V9.50977C11.1992 10.1725 10.6618 10.71 9.99902 10.71C9.33628 10.71 8.79883 10.1725 8.79883 9.50977Z" fill="#28303A"/>
<path d="M12.7988 9.50977V9.5C12.7988 8.83726 13.3363 8.2998 13.999 8.2998C14.6618 8.2998 15.1992 8.83726 15.1992 9.5V9.50977C15.1992 10.1725 14.6618 10.71 13.999 10.71C13.3363 10.71 12.7988 10.1725 12.7988 9.50977Z" fill="#28303A"/>
<path d="M16.7988 14.5098V14.5C16.7988 13.8373 17.3363 13.2998 17.999 13.2998C18.6618 13.2998 19.1992 13.8373 19.1992 14.5V14.5098C19.1992 15.1725 18.6618 15.71 17.999 15.71C17.3363 15.71 16.7988 15.1725 16.7988 14.5098Z" fill="#28303A"/>
<path d="M16.7988 9.50977V9.5C16.7988 8.83726 17.3363 8.2998 17.999 8.2998C18.6618 8.2998 19.1992 8.83726 19.1992 9.5V9.50977C19.1992 10.1725 18.6618 10.71 17.999 10.71C17.3363 10.71 16.7988 10.1725 16.7988 9.50977Z" fill="#28303A"/>
<path d="M13.999 13.2998C14.6618 13.2998 15.1992 13.8373 15.1992 14.5C15.1992 15.1627 14.6618 15.7002 13.999 15.7002H9.99902C9.33628 15.7002 8.79883 15.1627 8.79883 14.5C8.79883 13.8373 9.33628 13.2998 9.99902 13.2998H13.999Z" fill="#28303A"/>
</svg>
