<svg width="24" height="24" viewBox="0 0 24 24" fill="none" xmlns="http://www.w3.org/2000/svg">
<path d="M20 18.9004V20.5H4V18.9004H20ZM22.4004 16.5V7.5C22.4004 6.17452 21.3255 5.09961 20 5.09961H4C2.67452 5.09961 1.59961 6.17452 1.59961 7.5V16.5C1.59961 17.8255 2.67452 18.9004 4 18.9004V20.5C1.85996 20.5 0.112115 18.8194 0.00488281 16.7061L0 16.5V7.5C0 5.29086 1.79086 3.5 4 3.5H20L20.2061 3.50488C22.3194 3.61211 24 5.35996 24 7.5V16.5C24 18.64 22.3194 20.3879 20.2061 20.4951L20 20.5V18.9004C21.3255 18.9004 22.4004 17.8255 22.4004 16.5Z" fill="#28303A"/>
<path d="M5 14.5098V14.5C5 13.9477 5.44772 13.5 6 13.5C6.55228 13.5 7 13.9477 7 14.5V14.5098C7 15.0621 6.55228 15.5098 6 15.5098C5.44772 15.5098 5 15.0621 5 14.5098Z" fill="#28303A"/>
<path d="M5 9.50977V9.5C5 8.94772 5.44772 8.5 6 8.5C6.55228 8.5 7 8.94772 7 9.5V9.50977C7 10.0621 6.55228 10.5098 6 10.5098C5.44772 10.5098 5 10.0621 5 9.50977Z" fill="#28303A"/>
<path d="M9 9.50977V9.5C9 8.94772 9.44772 8.5 10 8.5C10.5523 8.5 11 8.94772 11 9.5V9.50977C11 10.0621 10.5523 10.5098 10 10.5098C9.44772 10.5098 9 10.0621 9 9.50977Z" fill="#28303A"/>
<path d="M13 9.50977V9.5C13 8.94772 13.4477 8.5 14 8.5C14.5523 8.5 15 8.94772 15 9.5V9.50977C15 10.0621 14.5523 10.5098 14 10.5098C13.4477 10.5098 13 10.0621 13 9.50977Z" fill="#28303A"/>
<path d="M17 14.5098V14.5C17 13.9477 17.4477 13.5 18 13.5C18.5523 13.5 19 13.9477 19 14.5V14.5098C19 15.0621 18.5523 15.5098 18 15.5098C17.4477 15.5098 17 15.0621 17 14.5098Z" fill="#28303A"/>
<path d="M17 9.50977V9.5C17 8.94772 17.4477 8.5 18 8.5C18.5523 8.5 19 8.94772 19 9.5V9.50977C19 10.0621 18.5523 10.5098 18 10.5098C17.4477 10.5098 17 10.0621 17 9.50977Z" fill="#28303A"/>
<path d="M14 13.5C14.5523 13.5 15 13.9477 15 14.5C15 15.0523 14.5523 15.5 14 15.5H10C9.44772 15.5 9 15.0523 9 14.5C9 13.9477 9.44772 13.5 10 13.5H14Z" fill="#28303A"/>
</svg>
