<svg width="24" height="24" viewBox="0 0 24 24" fill="none" xmlns="http://www.w3.org/2000/svg">
<path d="M4.7998 5.52344L4.7998 18.4766C4.80001 18.876 5.12398 19.2 5.52344 19.2002H18.4766C18.876 19.2 19.2 18.876 19.2002 18.4766V14.667C19.2002 14.2252 19.5582 13.8662 20 13.8662C20.4418 13.8662 20.7998 14.2252 20.7998 14.667V18.4766C20.7996 19.7597 19.7597 20.7996 18.4766 20.7998L5.52344 20.7998C4.24033 20.7996 3.2004 19.7597 3.2002 18.4766L3.2002 5.52344C3.2004 4.24033 4.24033 3.2004 5.52344 3.2002L9.33301 3.2002C9.77484 3.2002 10.1338 3.55817 10.1338 4C10.1338 4.44183 9.77484 4.7998 9.33301 4.7998H5.52344C5.12398 4.8 4.8 5.12398 4.7998 5.52344Z" fill="#28303A"/>
<path d="M18.7675 4.10126C19.0799 3.78884 19.5869 3.78884 19.8994 4.10126C20.2116 4.41364 20.2116 4.91974 19.8994 5.23212L11.2324 13.8991C10.92 14.2113 10.4139 14.2113 10.1015 13.8991C9.78908 13.5867 9.78908 13.0797 10.1015 12.7673L18.7675 4.10126Z" fill="#28303A"/>
<path d="M19.2002 9.33301V4.7998H14.667C14.2252 4.7998 13.8672 4.44183 13.8672 4C13.8672 3.55817 14.2252 3.2002 14.667 3.2002H20C20.4418 3.2002 20.8008 3.55817 20.8008 4V9.33301C20.8008 9.77484 20.4418 10.1338 20 10.1338C19.5583 10.1336 19.2002 9.77473 19.2002 9.33301Z" fill="#28303A"/>
</svg>
