<svg width="24" height="24" viewBox="0 0 24 24" fill="none" xmlns="http://www.w3.org/2000/svg">
<path d="M18.2002 10.2002C18.2002 6.64418 15.4031 3.7998 12 3.7998C8.59693 3.7998 5.7998 6.64418 5.7998 10.2002C5.79986 11.9417 6.56404 13.5734 7.82812 15.2617C8.96297 16.7774 10.435 18.2574 12 19.8555C13.565 18.2574 15.037 16.7774 16.1719 15.2617C17.436 13.5734 18.2001 11.9417 18.2002 10.2002ZM13.8252 10.2002C13.8252 9.12946 12.9868 8.2998 12 8.2998C11.0132 8.2998 10.1748 9.12946 10.1748 10.2002C10.1749 11.2708 11.0132 12.0996 12 12.0996C12.9868 12.0996 13.8251 11.2708 13.8252 10.2002ZM15.4248 10.2002C15.4247 12.1117 13.9126 13.7002 12 13.7002C10.0874 13.7002 8.5753 12.1117 8.5752 10.2002C8.5752 8.28859 10.0873 6.7002 12 6.7002C13.9127 6.7002 15.4248 8.28859 15.4248 10.2002ZM19.7998 10.2002C19.7997 12.4349 18.8139 14.4032 17.4531 16.2207C16.1007 18.027 14.2972 19.7844 12.5732 21.5576C12.4226 21.7125 12.216 21.7998 12 21.7998C11.784 21.7998 11.5774 21.7125 11.4268 21.5576C9.70279 19.7844 7.89933 18.027 6.54688 16.2207C5.18608 14.4032 4.20025 12.4349 4.2002 10.2002C4.2002 5.80331 7.67108 2.2002 12 2.2002C16.3289 2.2002 19.7998 5.80331 19.7998 10.2002Z" fill="#28303A"/>
</svg>
