<svg width="24" height="24" viewBox="0 0 24 24" fill="none" xmlns="http://www.w3.org/2000/svg">
<path d="M2.2002 16.2002V7.79981C2.2002 6.97313 2.19904 6.30496 2.24317 5.76465C2.28808 5.21492 2.38373 4.72686 2.61426 4.27442C2.97853 3.55969 3.55969 2.97853 4.27442 2.61426C4.72686 2.38373 5.21492 2.28808 5.76465 2.24317C6.30496 2.19904 6.97313 2.2002 7.79981 2.2002H9C9.44183 2.2002 9.79981 2.55818 9.79981 3C9.79981 3.44183 9.44183 3.79981 9 3.79981H7.79981C6.94663 3.79981 6.35462 3.8003 5.89453 3.83789C5.44387 3.87473 5.19025 3.94361 5.00098 4.04004C4.58726 4.25092 4.25092 4.58726 4.04004 5.00098C3.94361 5.19025 3.87473 5.44387 3.83789 5.89453C3.8003 6.35462 3.79981 6.94663 3.79981 7.79981V16.2002C3.79981 17.0534 3.8003 17.6454 3.83789 18.1055C3.87473 18.5561 3.94361 18.8098 4.04004 18.999C4.25092 19.4127 4.58726 19.7491 5.00098 19.96C5.19025 20.0564 5.44387 20.1253 5.89453 20.1621C6.35462 20.1997 6.94663 20.2002 7.79981 20.2002H9C9.44183 20.2002 9.79981 20.5582 9.79981 21C9.79981 21.4418 9.44183 21.7998 9 21.7998H7.79981C6.97313 21.7998 6.30496 21.801 5.76465 21.7568C5.21492 21.7119 4.72686 21.6163 4.27442 21.3857C3.55969 21.0215 2.97853 20.4403 2.61426 19.7256C2.38373 19.2731 2.28808 18.7851 2.24317 18.2354C2.19904 17.695 2.2002 17.0269 2.2002 16.2002ZM15.4346 6.43457C15.747 6.12215 16.253 6.12215 16.5654 6.43457L21.5654 11.4346C21.8779 11.747 21.8779 12.253 21.5654 12.5654L16.5654 17.5654C16.253 17.8779 15.747 17.8779 15.4346 17.5654C15.1222 17.253 15.1222 16.747 15.4346 16.4346L19.0693 12.7998H9C8.55818 12.7998 8.2002 12.4418 8.2002 12C8.2002 11.5582 8.55818 11.2002 9 11.2002H19.0693L15.4346 7.56543C15.1222 7.25301 15.1222 6.74699 15.4346 6.43457Z" fill="#28303A"/>
</svg>
