<svg width="24" height="24" viewBox="0 0 24 24" fill="none" xmlns="http://www.w3.org/2000/svg">
<path d="M20.2002 16.2002V7.79981C20.2002 6.94663 20.1997 6.35462 20.1621 5.89453C20.1253 5.44387 20.0564 5.19024 19.96 5.00098C19.7491 4.58726 19.4127 4.25092 18.999 4.04004C18.8098 3.94361 18.5561 3.87473 18.1055 3.83789C17.6454 3.8003 17.0534 3.79981 16.2002 3.79981H15C14.5582 3.79981 14.2002 3.44183 14.2002 3C14.2002 2.55818 14.5582 2.2002 15 2.2002H16.2002C17.0269 2.2002 17.695 2.19904 18.2354 2.24317C18.7851 2.28808 19.2731 2.38373 19.7256 2.61426C20.4403 2.97853 21.0215 3.55969 21.3857 4.27442C21.6163 4.72686 21.7119 5.21492 21.7568 5.76465C21.801 6.30496 21.7998 6.97313 21.7998 7.79981V16.2002C21.7998 17.0269 21.801 17.695 21.7568 18.2354C21.7119 18.7851 21.6163 19.2731 21.3857 19.7256C21.0215 20.4403 20.4403 21.0215 19.7256 21.3857C19.2731 21.6163 18.7851 21.7119 18.2354 21.7568C17.695 21.801 17.0269 21.7998 16.2002 21.7998H15C14.5582 21.7998 14.2002 21.4418 14.2002 21C14.2002 20.5582 14.5582 20.2002 15 20.2002H16.2002C17.0534 20.2002 17.6454 20.1997 18.1055 20.1621C18.5561 20.1253 18.8098 20.0564 18.999 19.96C19.4127 19.7491 19.7491 19.4127 19.96 18.999C20.0564 18.8098 20.1253 18.5561 20.1621 18.1055C20.1997 17.6454 20.2002 17.0534 20.2002 16.2002ZM9.43457 6.43457C9.74699 6.12215 10.253 6.12215 10.5654 6.43457L15.5654 11.4346C15.8778 11.747 15.8778 12.253 15.5654 12.5654L10.5654 17.5654C10.253 17.8779 9.74699 17.8779 9.43457 17.5654C9.12215 17.253 9.12215 16.747 9.43457 16.4346L13.0693 12.7998H3C2.55817 12.7998 2.2002 12.4418 2.2002 12C2.2002 11.5582 2.55817 11.2002 3 11.2002H13.0693L9.43457 7.56543C9.12215 7.25301 9.12215 6.74699 9.43457 6.43457Z" fill="#28303A"/>
</svg>
