<svg width="24" height="24" viewBox="0 0 24 24" fill="none" xmlns="http://www.w3.org/2000/svg">
<path d="M11 21V20.1367C7.27098 19.6832 4.31683 16.729 3.86328 13H3C2.44772 13 2 12.5523 2 12C2 11.4477 2.44772 11 3 11H3.86328C4.31684 7.27094 7.27092 4.31581 11 3.8623V3C11 2.44772 11.4477 2 12 2C12.5523 2 13 2.44772 13 3V3.8623C16.7291 4.31581 19.6832 7.27094 20.1367 11H21C21.5523 11 22 11.4477 22 12C22 12.5523 21.5523 13 21 13H20.1367C19.6832 16.729 16.729 19.6832 13 20.1367V21C13 21.5523 12.5523 22 12 22C11.4477 22 11 21.5523 11 21ZM12 5.7998C8.57584 5.7998 5.7998 8.57584 5.7998 12C5.7998 15.4242 8.57584 18.2002 12 18.2002C15.4242 18.2002 18.2002 15.4242 18.2002 12C18.2002 8.57584 15.4242 5.7998 12 5.7998ZM13.7002 12C13.7002 11.0611 12.9389 10.2998 12 10.2998C11.0611 10.2998 10.2998 11.0611 10.2998 12C10.2998 12.9389 11.0611 13.7002 12 13.7002C12.9389 13.7002 13.7002 12.9389 13.7002 12ZM15.7002 12C15.7002 14.0435 14.0435 15.7002 12 15.7002C9.95655 15.7002 8.2998 14.0435 8.2998 12C8.2998 9.95655 9.95655 8.2998 12 8.2998C14.0435 8.2998 15.7002 9.95655 15.7002 12Z" fill="#28303A"/>
</svg>
