<svg width="24" height="24" viewBox="0 0 24 24" fill="none" xmlns="http://www.w3.org/2000/svg">
<path d="M11.2002 21V19.96C7.42055 19.5848 4.41524 16.5795 4.04004 12.7998H3C2.55817 12.7998 2.2002 12.4418 2.2002 12C2.2002 11.5582 2.55817 11.2002 3 11.2002H4.04004C4.41524 7.42052 7.4205 4.41422 11.2002 4.03906V3C11.2002 2.55817 11.5582 2.2002 12 2.2002C12.4418 2.2002 12.7998 2.55817 12.7998 3V4.03906C16.5795 4.41422 19.5848 7.42052 19.96 11.2002H21C21.4418 11.2002 21.7998 11.5582 21.7998 12C21.7998 12.4418 21.4418 12.7998 21 12.7998H19.96C19.5848 16.5795 16.5795 19.5848 12.7998 19.96V21C12.7998 21.4418 12.4418 21.7998 12 21.7998C11.5582 21.7998 11.2002 21.4418 11.2002 21ZM12 5.59961C8.46538 5.59961 5.59961 8.46538 5.59961 12C5.59961 15.5346 8.46538 18.4004 12 18.4004C15.5346 18.4004 18.4004 15.5346 18.4004 12C18.4004 8.46538 15.5346 5.59961 12 5.59961ZM13.9004 12C13.9004 10.9507 13.0493 10.0996 12 10.0996C10.9507 10.0996 10.0996 10.9507 10.0996 12C10.0996 13.0493 10.9507 13.9004 12 13.9004C13.0493 13.9004 13.9004 13.0493 13.9004 12ZM15.5 12C15.5 13.933 13.933 15.5 12 15.5C10.067 15.5 8.5 13.933 8.5 12C8.5 10.067 10.067 8.5 12 8.5C13.933 8.5 15.5 10.067 15.5 12Z" fill="#28303A"/>
</svg>
