<svg width="24" height="24" viewBox="0 0 24 24" fill="none" xmlns="http://www.w3.org/2000/svg">
<path d="M19.3301 12C19.3301 7.91309 16.0166 4.59961 11.9297 4.59961C7.84278 4.59961 4.5293 7.91309 4.5293 12C4.5293 16.0869 7.84278 19.4004 11.9297 19.4004V21C6.95913 21 2.92969 16.9706 2.92969 12C2.92969 7.02944 6.95913 3 11.9297 3C16.9002 3 20.9297 7.02944 20.9297 12C20.9297 16.9706 16.9002 21 11.9297 21V19.4004C16.0166 19.4004 19.3301 16.0869 19.3301 12Z" fill="#28303A"/>
<path d="M15.4237 9.07697C15.7361 8.76455 16.2431 8.76455 16.5556 9.07697C16.8676 9.38932 16.8676 9.89547 16.5556 10.2078L11.2352 15.5281C10.9229 15.8404 10.4168 15.8403 10.1044 15.5281L7.44423 12.868C7.13184 12.5556 7.1319 12.0495 7.44423 11.7371C7.75665 11.4247 8.26267 11.4247 8.57509 11.7371L10.6688 13.8309L15.4237 9.07697Z" fill="#28303A"/>
</svg>
