<svg width="24" height="24" viewBox="0 0 24 24" fill="none" xmlns="http://www.w3.org/2000/svg">
<path d="M11.9297 3C16.9002 3 20.9297 7.02944 20.9297 12C20.9297 16.9706 16.9002 21 11.9297 21C6.95913 21 2.92969 16.9706 2.92969 12C2.92969 7.02944 6.95913 3 11.9297 3ZM16.5557 9.07715C16.2432 8.76474 15.7362 8.76473 15.4238 9.07715L10.6689 13.8311L8.5752 11.7373C8.26277 11.4249 7.75675 11.4249 7.44434 11.7373C7.13214 12.0497 7.132 12.5558 7.44434 12.8682L10.1045 15.5283C10.4169 15.8404 10.923 15.8404 11.2354 15.5283L16.5557 10.208C16.8677 9.89566 16.8677 9.3895 16.5557 9.07715Z" fill="#008A3E"/>
</svg>
