<svg width="24" height="24" viewBox="0 0 24 24" fill="none" xmlns="http://www.w3.org/2000/svg">
<path d="M20.2002 12C20.2002 7.47127 16.5287 3.7998 12 3.7998C7.47126 3.7998 3.7998 7.47126 3.7998 12C3.7998 16.5287 7.47127 20.2002 12 20.2002C16.5287 20.2002 20.2002 16.5287 20.2002 12ZM21.7998 12C21.7998 17.4124 17.4124 21.7998 12 21.7998C6.58761 21.7998 2.2002 17.4124 2.2002 12C2.2002 6.58761 6.58761 2.2002 12 2.2002C17.4124 2.2002 21.7998 6.58761 21.7998 12Z" fill="#28303A"/>
<path d="M9.08398 17.2822C8.80784 17.2822 8.58398 17.0584 8.58398 16.7822V7.88379C8.58398 7.60765 8.80784 7.38379 9.08398 7.38379H12.4668C14.7158 7.38379 16.0078 8.77148 16.0078 10.7197C16.0078 12.6953 14.6953 14.0557 12.4121 14.0557H10.6348V16.7822C10.6348 17.0584 10.4109 17.2822 10.1348 17.2822H9.08398ZM10.6348 12.4014H12.084C13.3008 12.4014 13.8955 11.7178 13.8887 10.7197C13.8955 9.73535 13.3008 9.07227 12.084 9.06543H10.6348V12.4014Z" fill="#28303A"/>
</svg>
