<svg width="24" height="24" viewBox="0 0 24 24" fill="none" xmlns="http://www.w3.org/2000/svg">
<path d="M11.5002 18.7998V16.5996H6.79999C6.53864 16.5996 6.29338 16.4721 6.14374 16.2578C5.99422 16.0436 5.95907 15.7697 6.04901 15.5244L7.83319 10.6572V5.7998C7.83319 5.35809 8.19132 5.00018 8.63299 5H15.967C16.4087 5.00018 16.7668 5.35809 16.7668 5.7998V10.6572L18.551 15.5244C18.6409 15.7697 18.6057 16.0436 18.4562 16.2578C18.3066 16.4721 18.0613 16.5996 17.8 16.5996H13.0998V18.7998C13.0998 19.2416 12.7418 19.5996 12.3 19.5996C11.8582 19.5996 11.5002 19.2416 11.5002 18.7998ZM9.43377 10.7998C9.43377 10.8938 9.41632 10.987 9.38397 11.0752L7.94549 15H16.6545L15.216 11.0752C15.1837 10.987 15.1662 10.8938 15.1662 10.7998V6.59961H9.43377V10.7998Z" fill="#28303A"/>
</svg>
