<svg width="24" height="24" viewBox="0 0 24 24" fill="none" xmlns="http://www.w3.org/2000/svg">
<path d="M11.5006 18.5996V16.1992H6.60019C6.40418 16.1992 6.22024 16.1041 6.10801 15.9434C5.99577 15.7827 5.96924 15.5766 6.03672 15.3926L7.83359 10.4902V5.59961C7.83359 5.26835 8.10198 5.00018 8.4332 5H15.7672C16.0984 5.00018 16.3668 5.26835 16.3668 5.59961V10.4902L18.1637 15.3926C18.2311 15.5766 18.2046 15.7827 18.0924 15.9434C17.9801 16.1041 17.7962 16.1992 17.6002 16.1992H12.6998V18.5996C12.6998 18.931 12.4316 19.1992 12.1002 19.1992C11.7688 19.1992 11.5006 18.931 11.5006 18.5996ZM9.03379 10.5996C9.03379 10.6701 9.02094 10.7405 8.99668 10.8066L7.45957 15H16.7408L15.2037 10.8066C15.1795 10.7405 15.1666 10.6701 15.1666 10.5996V6.19922H9.03379V10.5996Z" fill="#28303A"/>
</svg>
