<svg width="24" height="24" viewBox="0 0 24 24" fill="none" xmlns="http://www.w3.org/2000/svg">
<path d="M11.2002 19V12.7998H5C4.55817 12.7998 4.2002 12.4418 4.2002 12C4.2002 11.5582 4.55817 11.2002 5 11.2002H11.2002V5C11.2002 4.55817 11.5582 4.2002 12 4.2002C12.4418 4.2002 12.7998 4.55817 12.7998 5V11.2002H19C19.4418 11.2002 19.7998 11.5582 19.7998 12C19.7998 12.4418 19.4418 12.7998 19 12.7998H12.7998V19C12.7998 19.4418 12.4418 19.7998 12 19.7998C11.5582 19.7998 11.2002 19.4418 11.2002 19Z" fill="#28303A"/>
</svg>
