<svg width="24" height="24" viewBox="0 0 24 24" fill="none" xmlns="http://www.w3.org/2000/svg">
<path d="M19.3301 12C19.3301 7.91309 16.0166 4.59961 11.9297 4.59961C7.84278 4.59961 4.5293 7.91309 4.5293 12C4.5293 16.0869 7.84278 19.4004 11.9297 19.4004V21C6.95913 21 2.92969 16.9706 2.92969 12C2.92969 7.02944 6.95913 3 11.9297 3C16.9002 3 20.9297 7.02944 20.9297 12C20.9297 16.9706 16.9002 21 11.9297 21V19.4004C16.0166 19.4004 19.3301 16.0869 19.3301 12Z" fill="#28303A"/>
<path d="M12.7636 13.1011C12.624 13.5447 12.272 13.9288 11.8069 13.9288C11.3339 13.9288 10.9392 13.5402 11.0089 13.0724C11.0185 13.0083 11.0292 12.9465 11.0409 12.8871C11.1031 12.5914 11.2074 12.3248 11.3539 12.0874C11.5049 11.8499 11.7047 11.6147 11.9533 11.3817C12.1619 11.1935 12.3439 11.0143 12.4993 10.8441C12.6547 10.6738 12.7768 10.4991 12.8656 10.3199C12.9544 10.1362 12.9988 9.93235 12.9988 9.70833C12.9988 9.44848 12.9588 9.23342 12.8789 9.06317C12.8034 8.88844 12.688 8.75627 12.5326 8.66667C12.3817 8.57706 12.1908 8.53226 11.9599 8.53226C11.769 8.53226 11.5914 8.57482 11.4272 8.65995C11.2629 8.74059 11.1275 8.86604 11.021 9.03629C10.8216 9.36873 10.5501 9.70833 10.1625 9.70833H9.91374C9.3739 9.70833 8.91391 9.25272 9.08365 8.74026C9.15056 8.53824 9.23917 8.35466 9.34949 8.18952C9.6203 7.78629 9.98212 7.48835 10.435 7.2957C10.8878 7.09857 11.3961 7 11.9599 7C12.5815 7 13.1142 7.10305 13.5581 7.30914C14.0021 7.51075 14.3417 7.80869 14.577 8.20296C14.8123 8.59274 14.93 9.06765 14.93 9.62769C14.93 10.0175 14.8545 10.3647 14.7035 10.6694C14.5526 10.9695 14.355 11.2496 14.1109 11.5094C13.8667 11.7693 13.5981 12.0381 13.3051 12.3159C13.052 12.5444 12.8789 12.784 12.7857 13.0349C12.778 13.0566 12.7706 13.0787 12.7636 13.1011ZM10.7479 16.0054C10.7479 15.7186 10.8456 15.4812 11.0409 15.293C11.2363 15.1004 11.4982 15.004 11.8267 15.004C12.1508 15.004 12.4105 15.1004 12.6059 15.293C12.8057 15.4812 12.9055 15.7186 12.9055 16.0054C12.9055 16.2832 12.8057 16.5184 12.6059 16.711C12.4105 16.9037 12.1508 17 11.8267 17C11.4982 17 11.2363 16.9037 11.0409 16.711C10.8456 16.5184 10.7479 16.2832 10.7479 16.0054Z" fill="#28303A"/>
</svg>
