<svg width="24" height="24" viewBox="0 0 24 24" fill="none" xmlns="http://www.w3.org/2000/svg">
<path d="M11.9297 3C16.9002 3 20.9297 7.02944 20.9297 12C20.9297 16.9706 16.9002 21 11.9297 21C6.95913 21 2.92969 16.9706 2.92969 12C2.92969 7.02944 6.95913 3 11.9297 3ZM11.8262 15.0039C11.4979 15.004 11.2363 15.1005 11.041 15.293C10.8457 15.4811 10.748 15.7191 10.748 16.0059C10.7482 16.2834 10.8458 16.5184 11.041 16.7109C11.2363 16.9034 11.4979 16.9999 11.8262 17C12.1502 17 12.4101 16.9036 12.6055 16.7109C12.8051 16.5184 12.9052 16.2834 12.9053 16.0059C12.9053 15.7191 12.8052 15.4811 12.6055 15.293C12.4101 15.1004 12.1502 15.0039 11.8262 15.0039ZM11.96 7C11.3961 7 10.8874 7.09877 10.4346 7.2959C9.98191 7.48852 9.62037 7.78639 9.34961 8.18945C9.23929 8.35459 9.14992 8.53821 9.08301 8.74023C8.9134 9.25253 9.37345 9.70778 9.91309 9.70801H10.1621C10.5498 9.70801 10.8211 9.36857 11.0205 9.03613C11.127 8.86597 11.2626 8.7408 11.4268 8.66016C11.591 8.57503 11.7691 8.53223 11.96 8.53223C12.1907 8.53226 12.3813 8.57742 12.5322 8.66699C12.6876 8.7566 12.8034 8.88876 12.8789 9.06348C12.9587 9.2336 12.998 9.44847 12.998 9.70801C12.998 9.93202 12.954 10.1366 12.8652 10.3203C12.7765 10.4993 12.6542 10.6737 12.499 10.8438C12.3436 11.014 12.1618 11.1937 11.9531 11.3818C11.7046 11.6147 11.5044 11.8495 11.3535 12.0869C11.2071 12.3243 11.1032 12.5912 11.041 12.8867C11.0292 12.9461 11.0183 13.0082 11.0088 13.0723C10.939 13.5401 11.3337 13.9287 11.8066 13.9287C12.2716 13.9287 12.624 13.545 12.7637 13.1016C12.7707 13.0793 12.7775 13.0568 12.7852 13.0352C12.8784 12.7843 13.0516 12.5439 13.3047 12.3154C13.5975 12.0378 13.8663 11.7695 14.1104 11.5098C14.3545 11.2499 14.5522 10.9691 14.7031 10.6689C14.854 10.3644 14.9297 10.0175 14.9297 9.62793C14.9297 9.06803 14.8123 8.59286 14.5771 8.20312C14.3419 7.80886 14.0016 7.51118 13.5576 7.30957C13.1137 7.10353 12.5813 7.00003 11.96 7Z" fill="#28303A"/>
</svg>
