<svg width="24" height="24" viewBox="0 0 24 24" fill="none" xmlns="http://www.w3.org/2000/svg">
<path d="M19.3925 12C19.3925 7.91326 16.0637 4.60008 11.9578 4.59996C9.90367 4.59996 8.04514 5.42832 6.69872 6.76937C5.98645 7.47881 5.17745 8.44333 4.5368 9.2455C4.50148 9.28973 4.46791 9.33433 4.43376 9.37736H8.29637C8.74007 9.37754 9.09987 9.73572 9.1001 10.1773C9.1001 10.6192 8.74021 10.9781 8.29637 10.9783H2.80373C2.35973 10.9783 2 10.6193 2 10.1773V4.71131C2 4.26939 2.35973 3.91133 2.80373 3.91133C3.24772 3.91133 3.60746 4.26939 3.60746 4.71131V7.84382C4.20188 7.11462 4.90781 6.28921 5.56133 5.63827C7.19698 4.00914 9.45991 3 11.9578 3C16.9517 3.00013 21 7.02941 21 12C21 16.9706 16.9517 20.9999 11.9578 21C7.83422 21 4.3572 18.2534 3.26889 14.4996C3.14579 14.075 3.39186 13.6316 3.81845 13.5091C4.24499 13.3867 4.69046 13.6316 4.81354 14.0561C5.70865 17.1433 8.56964 19.4 11.9578 19.4C16.0637 19.3999 19.3925 16.0867 19.3925 12Z" fill="#28303A"/>
</svg>
