<svg width="24" height="24" viewBox="0 0 24 24" fill="none" xmlns="http://www.w3.org/2000/svg">
<path d="M18.3115 11.5557C18.3115 7.82471 15.2866 4.79986 11.5557 4.7998C7.82467 4.7998 4.7998 7.82467 4.7998 11.5557C4.79986 15.2866 7.82471 18.3115 11.5557 18.3115C13.3786 18.3115 15.0308 17.5868 16.2461 16.4131C16.2693 16.3818 16.2949 16.3516 16.3232 16.3232C16.3513 16.2952 16.3812 16.2701 16.4121 16.2471C17.5864 15.0317 18.3115 13.3791 18.3115 11.5557ZM19.9111 11.5557C19.9111 13.5747 19.1941 15.4258 18.002 16.8701L20.5654 19.4346C20.8778 19.747 20.8778 20.253 20.5654 20.5654C20.253 20.8778 19.747 20.8778 19.4346 20.5654L16.8711 18.002C15.4267 19.1944 13.575 19.9111 11.5557 19.9111C6.94105 19.9111 3.20025 16.1703 3.2002 11.5557C3.2002 6.94102 6.94102 3.2002 11.5557 3.2002C16.1703 3.20025 19.9111 6.94105 19.9111 11.5557Z" fill="#28303A"/>
</svg>
