<svg width="24" height="24" viewBox="0 0 24 24" fill="none" xmlns="http://www.w3.org/2000/svg">
<path d="M12.216 2.00781C12.7175 2.04441 13.2025 2.20852 13.6252 2.48535C14.1081 2.80166 14.4891 3.25116 14.7219 3.7793H14.7209L15.2463 4.95996L15.2482 4.96387C15.3488 5.19314 15.5181 5.38335 15.7306 5.50781H15.7297C15.9428 5.6312 16.1885 5.68267 16.4318 5.65723L17.7092 5.52051H17.7101C18.2842 5.45939 18.8635 5.56747 19.3771 5.83105C19.8902 6.09442 20.315 6.50171 20.6017 7.00195C20.8889 7.50252 21.0263 8.0761 20.9963 8.65234C20.9662 9.22867 20.7708 9.78506 20.4328 10.2529L19.6769 11.2988C19.5306 11.5017 19.4513 11.7475 19.4513 12V12.0049C19.4501 12.2567 19.5274 12.5019 19.672 12.7051L20.4279 13.752C20.7659 14.2198 20.9623 14.7762 20.9924 15.3525C21.0224 15.9288 20.886 16.5023 20.5988 17.0029L20.5978 17.002C20.3111 17.5025 19.8866 17.9103 19.3732 18.1738C18.8596 18.4374 18.2803 18.5455 17.7062 18.4844H17.7052L16.4279 18.3477V18.3467C16.1845 18.3212 15.939 18.3745 15.7258 18.498L15.5744 18.6025C15.433 18.7183 15.3181 18.8665 15.2424 19.0371L14.7209 20.2197C14.4881 20.748 14.1082 21.1983 13.6252 21.5146C13.2025 21.7915 12.7175 21.9556 12.216 21.9922L12.0002 22C11.4227 22.0001 10.8582 21.831 10.3752 21.5146C9.89226 21.1983 9.51128 20.7488 9.27849 20.2207V20.2197L8.75701 19.0381V19.0371C8.65584 18.8075 8.48505 18.6173 8.27166 18.4932C8.05798 18.3692 7.81159 18.3161 7.56755 18.3418L6.29119 18.4795H6.29021C5.71622 18.5403 5.13669 18.4325 4.62322 18.1689C4.10991 17.9055 3.68558 17.4975 3.39861 16.9971C3.11148 16.4965 2.97403 15.9239 3.00408 15.3477C3.03417 14.7713 3.22957 14.2149 3.56755 13.7471L4.32439 12.7002C4.43389 12.5482 4.50523 12.3723 4.53435 12.1875L4.549 12C4.54905 11.7475 4.46978 11.5017 4.32341 11.2988L3.56755 10.2529C3.22957 9.78506 3.03417 9.22867 3.00408 8.65234C2.97403 8.0761 3.11049 7.50252 3.39763 7.00195H3.39861C3.68538 6.50171 4.11011 6.09441 4.62322 5.83105C5.13683 5.56747 5.71611 5.45939 6.29021 5.52051H6.29119L7.57244 5.65723H7.57146C7.81482 5.6829 8.06033 5.63105 8.27361 5.50781L8.42498 5.40234C8.56681 5.28573 8.68067 5.13566 8.75603 4.96387L8.75701 4.96191L9.27849 3.7793C9.51128 3.25116 9.89226 2.80166 10.3752 2.48535C10.8582 2.16897 11.4227 1.99994 12.0002 2L12.216 2.00781ZM13.6779 12C13.6779 11.0539 12.9186 10.2998 11.9982 10.2998C11.078 10.3 10.3195 11.0541 10.3195 12C10.3195 12.9459 11.078 13.7 11.9982 13.7002C12.9186 13.7002 13.6779 12.9461 13.6779 12ZM6.53923 12.251C6.50003 12.7505 6.34447 13.2341 6.08416 13.6621L5.94548 13.8711L5.18865 14.9189C5.07687 15.0738 5.01121 15.2593 5.00115 15.4521C4.99367 15.5967 5.01795 15.7402 5.07048 15.873L5.13298 16.002V16.0029C5.22844 16.1692 5.36865 16.3036 5.5363 16.3896C5.70381 16.4756 5.89224 16.5098 6.0783 16.4902L7.35564 16.3535H7.35662C7.94108 16.2917 8.52897 16.3946 9.05584 16.6475L9.27752 16.7646L9.48943 16.8994C9.96971 17.2323 10.3501 17.6927 10.5871 18.2305L11.1086 19.4131V19.4141C11.1861 19.5901 11.3127 19.7382 11.4709 19.8418C11.629 19.9454 11.813 20 12.0002 20L12.1398 19.9902C12.2779 19.97 12.4109 19.9195 12.5295 19.8418C12.6877 19.7382 12.8142 19.5891 12.8918 19.4131L13.4133 18.2305L13.4142 18.2295C13.6848 17.6183 14.1406 17.1073 14.7179 16.7705L14.7189 16.7695C15.2995 16.4321 15.972 16.2877 16.6398 16.3584H16.6408L17.9181 16.4961L18.0578 16.5C18.197 16.4945 18.3345 16.459 18.4601 16.3945C18.6277 16.3085 18.7682 16.1742 18.8635 16.0078L18.926 15.8779C18.9785 15.7451 19.0028 15.6015 18.9953 15.457C18.9852 15.2642 18.9196 15.0787 18.8078 14.9238L18.051 13.877L18.049 13.874C17.6566 13.3267 17.448 12.6686 17.4513 11.9951C17.4523 11.3253 17.6629 10.6721 18.0549 10.1289L18.8117 9.08105C18.9235 8.92616 18.9891 8.74067 18.9992 8.54785C19.0092 8.35509 18.9626 8.16421 18.8674 7.99805V7.99707C18.7721 7.83067 18.6317 7.69642 18.464 7.61035C18.3384 7.54588 18.2009 7.51041 18.0617 7.50488L17.922 7.50977L16.6447 7.64648H16.6437C15.976 7.71715 15.3034 7.57279 14.7228 7.23535L14.7199 7.23438C14.1429 6.89653 13.6877 6.38431 13.4181 5.77246L12.8927 4.58887L12.8908 4.58594V4.58496C12.8132 4.40948 12.6873 4.26157 12.5295 4.1582C12.4109 4.08053 12.2779 4.02998 12.1398 4.00977L12.0002 4C11.813 3.99997 11.629 4.05464 11.4709 4.1582C11.3127 4.2618 11.1861 4.40995 11.1086 4.58594V4.58691L10.5871 5.7666L10.5881 5.76758C10.3188 6.38146 9.86282 6.89569 9.28435 7.23438L9.28142 7.23535C8.70086 7.57279 8.0283 7.71715 7.36052 7.64648H7.35955L6.0783 7.50977C5.89221 7.48998 5.70386 7.52436 5.5363 7.61035C5.36867 7.69643 5.22826 7.83067 5.13298 7.99707V7.99805C5.03772 8.16421 4.99117 8.35509 5.00115 8.54785C5.01121 8.74067 5.07687 8.92616 5.18865 9.08105L5.94548 10.1289L6.08416 10.3379C6.38787 10.8373 6.54907 11.4123 6.549 12L6.53923 12.251ZM15.6779 12C15.6779 14.0363 14.0375 15.7002 11.9982 15.7002C9.95907 15.7 8.31951 14.0361 8.31951 12C8.31951 9.96385 9.95907 8.3 11.9982 8.2998C14.0375 8.2998 15.6779 9.96373 15.6779 12Z" fill="#28303A"/>
</svg>
