<svg width="24" height="24" viewBox="0 0 24 24" fill="none" xmlns="http://www.w3.org/2000/svg">
<path d="M12.2011 2.20703C12.6688 2.24114 13.1213 2.39412 13.5155 2.65234C13.9654 2.947 14.3197 3.36629 14.537 3.8584L15.0634 5.04102L15.0644 5.04492C15.1818 5.31266 15.3806 5.5348 15.6298 5.68066H15.6288C15.8788 5.82546 16.1672 5.88647 16.453 5.85645L17.7304 5.71973L17.9316 5.70508C18.4001 5.68949 18.8659 5.79375 19.2851 6.00879C19.7637 6.25441 20.16 6.6347 20.4276 7.10156H20.4286C20.6966 7.56876 20.8239 8.10459 20.7958 8.64258C20.7676 9.1804 20.5857 9.69929 20.2704 10.1357L19.5136 11.1816C19.3426 11.4186 19.2508 11.7056 19.2509 12V12.0039C19.2494 12.298 19.3401 12.5846 19.5097 12.8223L20.2665 13.8691C20.5819 14.3057 20.7638 14.8253 20.7919 15.3633C20.8199 15.9011 20.6927 16.4362 20.4247 16.9033C20.1571 17.3704 19.7599 17.7504 19.2812 17.9961C18.862 18.2112 18.3962 18.3154 17.9276 18.2998L17.7265 18.2852L16.4491 18.1484V18.1475C16.1628 18.1174 15.8732 18.1789 15.623 18.3242L15.6239 18.3252C15.3759 18.47 15.1775 18.6902 15.0595 18.9561L15.0605 18.957L14.538 20.1396C14.3207 20.6326 13.966 21.0526 13.5155 21.3477C13.1213 21.6059 12.6688 21.7589 12.2011 21.793L11.9999 21.7998C11.4614 21.7999 10.9348 21.6428 10.4843 21.3477C10.0902 21.0895 9.76936 20.7358 9.54972 20.3213L9.46183 20.1396L8.93937 18.957V18.9561C8.82121 18.6881 8.62196 18.4657 8.37198 18.3203C8.12151 18.1749 7.83235 18.1123 7.54581 18.1426L7.54679 18.1436L6.26944 18.2803H6.26847C5.73328 18.3369 5.19363 18.236 4.71476 17.9902C4.2361 17.7446 3.83903 17.3653 3.5712 16.8984C3.3032 16.4312 3.17593 15.8954 3.20401 15.3574C3.23219 14.8196 3.41412 14.3007 3.72941 13.8643L4.48526 12.8174C4.63481 12.6101 4.72497 12.3655 4.74503 12.1104L4.74894 12C4.74899 11.7056 4.65624 11.4196 4.48526 11.1826L3.72941 10.1357C3.41412 9.69929 3.23219 9.1804 3.20401 8.64258C3.17593 8.10459 3.3032 7.56876 3.5712 7.10156C3.83885 6.6345 4.23601 6.25448 4.71476 6.00879C5.19379 5.76303 5.73415 5.66267 6.26944 5.71973L7.55069 5.85645H7.54972C7.83556 5.88669 8.12387 5.82531 8.37394 5.68066L8.46573 5.62207C8.67196 5.47818 8.83664 5.27902 8.93937 5.04492V5.04297L9.46183 3.86035L9.54972 3.67871C9.76936 3.26419 10.0902 2.91046 10.4843 2.65234C10.9348 2.35725 11.4614 2.20013 11.9999 2.2002L12.2011 2.20703ZM13.8778 12C13.8778 10.9449 13.0303 10.0996 11.998 10.0996C10.9658 10.0998 10.1191 10.945 10.1191 12C10.1191 13.055 10.9658 13.9002 11.998 13.9004C13.0303 13.9004 13.8778 13.0551 13.8778 12ZM6.33976 12.2354C6.29688 12.7816 6.10528 13.3074 5.78312 13.7539V13.7549L5.02628 14.8018C4.89188 14.9879 4.81374 15.2102 4.80167 15.4414C4.78962 15.6726 4.84443 15.9019 4.9589 16.1016C5.07354 16.3015 5.24281 16.4635 5.44523 16.5674C5.64709 16.6709 5.87397 16.7129 6.09855 16.6895L7.37589 16.5527H7.37784C7.92491 16.4949 8.47535 16.5905 8.96866 16.8271L9.17667 16.9375L9.37491 17.0635C9.82511 17.3755 10.182 17.8072 10.4042 18.3115L10.9257 19.4941L11.0058 19.6465C11.0966 19.7917 11.2182 19.9151 11.3612 20.0088C11.5519 20.1336 11.7737 20.2002 11.9999 20.2002L12.1689 20.1875C12.3355 20.163 12.4957 20.1023 12.6386 20.0088C12.8293 19.8839 12.981 19.7054 13.0741 19.4941L13.5966 18.3115V18.3105C13.8502 17.7377 14.2775 17.2588 14.8183 16.9434L14.8192 16.9424C15.363 16.6263 15.9928 16.4915 16.6181 16.5576H16.62L17.8964 16.6943L18.0653 16.7002C18.2336 16.6935 18.3991 16.6501 18.5507 16.5723C18.753 16.4684 18.9226 16.3073 19.037 16.1074L19.1112 15.9521C19.1745 15.7924 19.2033 15.6199 19.1942 15.4463C19.1822 15.2151 19.1041 14.9928 18.9696 14.8066L18.2128 13.7598L18.2109 13.7568C17.8433 13.244 17.6472 12.6273 17.6503 11.9961C17.651 11.3678 17.8492 10.7544 18.2167 10.2451L18.9735 9.19824C19.1079 9.01205 19.1861 8.78977 19.1982 8.55859C19.2102 8.32741 19.1554 8.09811 19.0409 7.89844V7.89746C18.9265 7.69756 18.7569 7.53644 18.5546 7.43262C18.3524 7.3289 18.1252 7.28563 17.9003 7.30957L16.6239 7.44727H16.622C15.9967 7.51335 15.3669 7.37856 14.8232 7.0625L14.8212 7.06152C14.2793 6.74429 13.852 6.2629 13.5995 5.6875V5.68652L13.0751 4.50781L13.0741 4.50586C12.981 4.29461 12.8293 4.1161 12.6386 3.99121C12.4957 3.89765 12.3355 3.83696 12.1689 3.8125L11.9999 3.7998C11.7737 3.79977 11.5519 3.86636 11.3612 3.99121C11.2182 4.08491 11.0966 4.20826 11.0058 4.35352L10.9257 4.50586L10.4032 5.68652L10.4042 5.6875C10.1518 6.26289 9.72441 6.74429 9.18253 7.06152L9.18058 7.0625C8.63678 7.37858 8.00707 7.51336 7.38175 7.44727H7.38077L6.09952 7.31055C5.8746 7.28658 5.64743 7.32888 5.44523 7.43262C5.24292 7.53644 5.07335 7.69756 4.9589 7.89746V7.89844C4.84443 8.09811 4.78962 8.32741 4.80167 8.55859C4.81374 8.78977 4.89188 9.01205 5.02628 9.19824L5.78312 10.2451V10.2461C6.15135 10.7564 6.34961 11.3704 6.34952 12L6.33976 12.2354ZM15.4775 12C15.4775 13.9272 13.9254 15.5 11.998 15.5C10.0707 15.4998 8.51847 13.9271 8.51847 12C8.51847 10.0729 10.0707 8.50019 11.998 8.5C13.9254 8.5 15.4775 10.0728 15.4775 12Z" fill="#28303A"/>
</svg>
