<svg width="24" height="24" viewBox="0 0 24 24" fill="none" xmlns="http://www.w3.org/2000/svg">
<path d="M11.5766 1.90142C11.8515 1.80656 12.1504 1.80636 12.4252 1.90142L12.56 1.95611L12.6655 2.0147C12.8989 2.15969 13.0393 2.36673 13.1215 2.50103C13.2223 2.66561 13.3268 2.8805 13.435 3.09966L15.6215 7.52935L20.5131 8.24419C20.7549 8.27953 20.9916 8.31334 21.1791 8.35845C21.3323 8.39529 21.5729 8.46439 21.7826 8.64165L21.8696 8.72466L21.9643 8.83599C22.1685 9.10681 22.2602 9.44904 22.2153 9.78912C22.172 10.1159 21.9875 10.3535 21.8705 10.4903C21.7451 10.6369 21.5729 10.8032 21.3979 10.9737L17.8598 14.42L18.6948 19.2872C18.7361 19.5281 18.7772 19.7637 18.7924 19.9561C18.8066 20.1355 18.8162 20.4365 18.6586 20.7266C18.4715 21.0712 18.1389 21.3133 17.7534 21.3848C17.4287 21.445 17.1452 21.3425 16.9789 21.2735C16.8007 21.1995 16.5898 21.0874 16.3735 20.9737L12.0004 18.6739L7.62737 20.9737C7.41107 21.0874 7.20012 21.1995 7.02191 21.2735C6.85567 21.3425 6.57215 21.445 6.24749 21.3848C5.86194 21.3133 5.52938 21.0712 5.34222 20.7266C5.18466 20.4365 5.19423 20.1355 5.20843 19.9561C5.22366 19.7637 5.26476 19.5281 5.30609 19.2872L6.14105 14.42L2.60296 10.9737C2.42794 10.8032 2.25573 10.6369 2.1303 10.4903C2.01334 10.3535 1.82882 10.1159 1.78558 9.78912C1.73425 9.40047 1.86167 9.00925 2.13128 8.72466L2.2182 8.64165C2.42795 8.46439 2.66857 8.39529 2.82171 8.35845C3.00929 8.31334 3.24597 8.27953 3.48773 8.24419L8.37933 7.52935L10.5659 3.09966C10.674 2.8805 10.7786 2.66561 10.8793 2.50103C10.9733 2.34756 11.1428 2.09821 11.4409 1.95611L11.5766 1.90142ZM9.8139 8.23736C9.76747 8.33142 9.67873 8.5292 9.53069 8.68853C9.41625 8.81169 9.27885 8.91158 9.1264 8.98247C8.92946 9.07402 8.71469 9.09719 8.61077 9.11236L3.71917 9.8272L7.25726 13.2735C7.31369 13.3285 7.41778 13.4243 7.51116 13.5489L7.59905 13.6827L7.65472 13.796C7.70489 13.9111 7.73815 14.0331 7.75335 14.1583C7.77957 14.3745 7.73595 14.5869 7.71819 14.6905L6.88323 19.5577L11.2553 17.2579C11.3483 17.209 11.5367 17.1015 11.7504 17.0596L11.8744 17.0411C11.9582 17.0329 12.0426 17.0329 12.1264 17.0411L12.2504 17.0596L12.4047 17.1016C12.5521 17.1519 12.6758 17.2212 12.7455 17.2579L17.1176 19.5577L16.2826 14.6905C16.2649 14.5869 16.2213 14.3745 16.2475 14.1583L16.268 14.0342C16.2952 13.9114 16.3404 13.793 16.4018 13.6827L16.4897 13.5489C16.5831 13.4243 16.6872 13.3285 16.7436 13.2735L20.2817 9.8272L15.3901 9.11236C15.2861 9.09719 15.0714 9.07402 14.8744 8.98247C14.722 8.91158 14.5846 8.8117 14.4701 8.68853C14.3221 8.5292 14.2334 8.33142 14.1869 8.23736L12.0004 3.80767L9.8139 8.23736Z" fill="#FFCC13"/>
</svg>
