<svg width="24" height="24" viewBox="0 0 24 24" fill="none" xmlns="http://www.w3.org/2000/svg">
<path d="M8.30273 9.25C9.17009 9.25003 9.95314 9.4425 10.6445 9.83398C11.1443 10.1007 11.6535 10.4344 12.1738 10.834L12.6992 11.2568L12.7041 11.2617C13.2988 11.7936 13.8414 12.179 14.3311 12.4258C14.8111 12.6677 15.3214 12.789 15.8652 12.7891C16.5385 12.7891 17.0748 12.5557 17.4951 12.0918C17.9115 11.6322 18.2071 10.8101 18.3398 9.57031L18.3662 9.32031L18.6172 9.34863L20.0283 9.51172L20.2598 9.53809L20.25 9.77051C20.1812 11.3869 19.7437 12.6457 18.9014 13.5059L18.8984 13.5088C18.0618 14.3398 16.9873 14.75 15.6973 14.75C14.8562 14.75 14.0886 14.5801 13.4004 14.2363L13.3975 14.2354C12.7473 13.8989 12.0601 13.399 11.335 12.7432C10.6693 12.1859 10.1149 11.7989 9.66895 11.5732L9.66016 11.5693C9.22998 11.3321 8.7456 11.211 8.20215 11.2109C7.50733 11.2109 6.94738 11.4546 6.50391 11.9414C6.08791 12.4012 5.79286 13.2229 5.66016 14.4619L5.63379 14.7119L5.38281 14.6836L3.97168 14.5215L3.74023 14.4941L3.75 14.2627C3.79578 13.1573 4.00229 12.2302 4.38281 11.4951L4.38574 11.4902C4.78656 10.7615 5.32224 10.2055 5.99414 9.83398C6.68456 9.44305 7.45641 9.25 8.30273 9.25Z" fill="#28303A"/>
</svg>
