<svg width="24" height="24" viewBox="0 0 24 24" fill="none" xmlns="http://www.w3.org/2000/svg">
<path d="M17.9697 13.2308C17.9697 9.93409 15.2977 7.26119 12.001 7.26111C8.70418 7.26111 6.03125 9.93404 6.03125 13.2308C6.03134 16.5276 8.70424 19.1996 12.001 19.1996C15.2976 19.1995 17.9696 16.5275 17.9697 13.2308ZM19.5703 13.2308C19.5702 17.4112 16.1813 20.8001 12.001 20.8002C7.82058 20.8002 4.43173 17.4112 4.43164 13.2308C4.43164 9.05039 7.82053 5.6615 12.001 5.6615C16.1814 5.66158 19.5703 9.05044 19.5703 13.2308Z" fill="#28303A"/>
<path d="M6.70128 3.29391C7.09119 3.08637 7.57562 3.23412 7.78331 3.62399C7.9909 4.01391 7.84311 4.49832 7.45323 4.70602C6.37149 5.28228 5.40623 6.05452 4.60655 6.98337C4.3183 7.3182 3.81346 7.35559 3.47862 7.06735C3.14379 6.77909 3.1054 6.27426 3.39366 5.93942C4.32267 4.86032 5.44457 3.96338 6.70128 3.29391Z" fill="#28303A"/>
<path d="M16.2171 3.62392C16.4248 3.23401 16.9092 3.0862 17.2991 3.29384C18.5558 3.96331 19.6777 4.86024 20.6067 5.93935C20.8949 6.27417 20.8565 6.77902 20.5217 7.06728C20.1869 7.35554 19.6821 7.31813 19.3938 6.9833C18.5942 6.05445 17.6289 5.28222 16.5471 4.70595C16.1572 4.49824 16.0094 4.01385 16.2171 3.62392Z" fill="#28303A"/>
<path d="M11.2002 9.53882C11.2002 9.09699 11.5582 8.73901 12 8.73901C12.4418 8.73901 12.7998 9.09699 12.7998 9.53882V12.4314H15.0771C15.5189 12.4315 15.877 12.7894 15.877 13.2312C15.877 13.673 15.5189 14.0309 15.0771 14.031H12C11.5582 14.031 11.2002 13.673 11.2002 13.2312V9.53882Z" fill="#28303A"/>
</svg>
