<svg width="24" height="24" viewBox="0 0 24 24" fill="none" xmlns="http://www.w3.org/2000/svg">
<path d="M11.2002 21V8.93066L6.56543 13.5654C6.25301 13.8778 5.74699 13.8778 5.43457 13.5654C5.12215 13.253 5.12215 12.747 5.43457 12.4346L11.4346 6.43457L11.4951 6.37988C11.8093 6.12342 12.2725 6.14161 12.5654 6.43457L18.5654 12.4346C18.8778 12.747 18.8778 13.253 18.5654 13.5654C18.253 13.8778 17.747 13.8778 17.4346 13.5654L12.7998 8.93066V21C12.7998 21.4418 12.4418 21.7998 12 21.7998C11.5582 21.7998 11.2002 21.4418 11.2002 21ZM21 2.2002C21.4418 2.2002 21.7998 2.55817 21.7998 3C21.7998 3.44183 21.4418 3.7998 21 3.7998H3C2.55817 3.7998 2.2002 3.44183 2.2002 3C2.2002 2.55817 2.55817 2.2002 3 2.2002H21Z" fill="#28303A"/>
</svg>
