<svg width="24" height="24" viewBox="0 0 24 24" fill="none" xmlns="http://www.w3.org/2000/svg">
<path d="M12.0089 17.2002C12.4506 17.2004 12.8087 17.5583 12.8087 18C12.8087 18.4417 12.4506 18.7996 12.0089 18.7998H12.0001C11.5584 18.7998 11.2003 18.4418 11.2003 18C11.2003 17.5582 11.5584 17.2002 12.0001 17.2002H12.0089ZM12.0001 13.2002C13.3391 13.2002 14.5769 13.6394 15.5617 14.3809C15.9145 14.6465 15.9852 15.148 15.7199 15.501C15.4541 15.8539 14.9517 15.9249 14.5988 15.6592C13.8861 15.1226 12.9852 14.7998 12.0001 14.7998C11.0002 14.7998 10.0869 15.1324 9.36928 15.6836C9.0189 15.9528 8.51637 15.8865 8.24721 15.5361C7.97831 15.1858 8.04439 14.6841 8.39467 14.415C9.38652 13.6532 10.641 13.2002 12.0001 13.2002ZM12.0001 9.2002C14.5131 9.2002 16.8146 10.0982 18.5705 11.584C18.9073 11.8694 18.9493 12.3738 18.6642 12.7109C18.3788 13.0482 17.8736 13.0901 17.5363 12.8047C16.0639 11.5589 14.1274 10.7998 12.0001 10.7998C9.8729 10.7998 7.9364 11.5589 6.46401 12.8047C6.12673 13.0901 5.62148 13.0482 5.33608 12.7109C5.05097 12.3737 5.09363 11.8693 5.4308 11.584C7.18659 10.0983 9.48721 9.20021 12.0001 9.2002ZM12.0001 5.2002C15.6676 5.2002 19.0142 6.54678 21.5285 8.75977C21.8601 9.05169 21.8927 9.558 21.6007 9.88965C21.3088 10.2211 20.8034 10.2527 20.4718 9.96094C18.2442 8.00006 15.2712 6.7998 12.0001 6.7998C8.72904 6.7998 5.75612 8.00006 3.52846 9.96094C3.19688 10.2527 2.69149 10.2211 2.39955 9.88965C2.10762 9.558 2.14017 9.05169 2.47182 8.75977C4.98604 6.54678 8.33269 5.2002 12.0001 5.2002Z" fill="#28303A"/>
</svg>
